<?xml version="1.0" encoding="utf-8" standalone="no"?>
<!DOCTYPE svg PUBLIC "-//W3C//DTD SVG 1.1//EN"
  "http://www.w3.org/Graphics/SVG/1.1/DTD/svg11.dtd">
<svg xmlns:xlink="http://www.w3.org/1999/xlink" width="382.465735pt" height="447.223872pt" viewBox="0 0 382.465735 447.223872" xmlns="http://www.w3.org/2000/svg" version="1.1">
 <metadata>
  <rdf:RDF xmlns:dc="http://purl.org/dc/elements/1.1/" xmlns:cc="http://creativecommons.org/ns#" xmlns:rdf="http://www.w3.org/1999/02/22-rdf-syntax-ns#">
   <cc:Work>
    <dc:type rdf:resource="http://purl.org/dc/dcmitype/StillImage"/>
    <dc:date>2024-09-06T15:22:32.556292</dc:date>
    <dc:format>image/svg+xml</dc:format>
    <dc:creator>
     <cc:Agent>
      <dc:title>Matplotlib v3.8.2, https://matplotlib.org/</dc:title>
     </cc:Agent>
    </dc:creator>
   </cc:Work>
  </rdf:RDF>
 </metadata>
 <defs>
  <style type="text/css">*{stroke-linejoin: round; stroke-linecap: butt}</style>
 </defs>
 <g id="figure_1">
  <g id="patch_1">
   <path d="M 0 447.223872 
L 382.465735 447.223872 
L 382.465735 -0 
L 0 -0 
z
" style="fill: #ffffff"/>
  </g>
  <g id="axes_1">
   <g id="patch_2">
    <path d="M 36.0625 192.562256 
L 374.328617 192.562256 
L 374.328617 20.7 
L 36.0625 20.7 
z
" style="fill: #ffffff"/>
   </g>
   <g id="line2d_1">
    <path d="M 36.0625 117.452085 
L 374.328617 117.452085 
" clip-path="url(#p106ef89c25)" style="fill: none; stroke: #808080; stroke-width: 0.5; stroke-linecap: square"/>
   </g>
   <g id="patch_3">
    <path d="M 46.633316 117.452085 
L 67.774948 117.452085 
L 67.774948 105.750895 
L 46.633316 105.750895 
z
" clip-path="url(#p106ef89c25)" style="fill: #ef476f"/>
   </g>
   <g id="patch_4">
    <path d="M 88.916581 117.452085 
L 110.058213 117.452085 
L 110.058213 117.452085 
L 88.916581 117.452085 
z
" clip-path="url(#p106ef89c25)" style="fill: #ef476f"/>
   </g>
   <g id="patch_5">
    <path d="M 131.199845 117.452085 
L 152.341478 117.452085 
L 152.341478 117.452085 
L 131.199845 117.452085 
z
" clip-path="url(#p106ef89c25)" style="fill: #ef476f"/>
   </g>
   <g id="patch_6">
    <path d="M 173.48311 117.452085 
L 194.624742 117.452085 
L 194.624742 117.452085 
L 173.48311 117.452085 
z
" clip-path="url(#p106ef89c25)" style="fill: #ef476f"/>
   </g>
   <g id="patch_7">
    <path d="M 215.766375 117.452085 
L 236.908007 117.452085 
L 236.908007 166.562537 
L 215.766375 166.562537 
z
" clip-path="url(#p106ef89c25)" style="fill: #ef476f"/>
   </g>
   <g id="patch_8">
    <path d="M 258.049639 117.452085 
L 279.191272 117.452085 
L 279.191272 117.452085 
L 258.049639 117.452085 
z
" clip-path="url(#p106ef89c25)" style="fill: #ef476f"/>
   </g>
   <g id="patch_9">
    <path d="M 300.332904 117.452085 
L 321.474536 117.452085 
L 321.474536 117.452085 
L 300.332904 117.452085 
z
" clip-path="url(#p106ef89c25)" style="fill: #ef476f"/>
   </g>
   <g id="patch_10">
    <path d="M 342.616169 117.452085 
L 363.757801 117.452085 
L 363.757801 117.452085 
L 342.616169 117.452085 
z
" clip-path="url(#p106ef89c25)" style="fill: #ef476f"/>
   </g>
   <g id="patch_11">
    <path d="M 46.633316 117.452085 
L 67.774948 117.452085 
L 67.774948 117.452085 
L 46.633316 117.452085 
z
" clip-path="url(#p106ef89c25)" style="fill: #f78c6b"/>
   </g>
   <g id="patch_12">
    <path d="M 88.916581 117.452085 
L 110.058213 117.452085 
L 110.058213 97.49111 
L 88.916581 97.49111 
z
" clip-path="url(#p106ef89c25)" style="fill: #f78c6b"/>
   </g>
   <g id="patch_13">
    <path d="M 131.199845 117.452085 
L 152.341478 117.452085 
L 152.341478 110.497042 
L 131.199845 110.497042 
z
" clip-path="url(#p106ef89c25)" style="fill: #f78c6b"/>
   </g>
   <g id="patch_14">
    <path d="M 173.48311 117.452085 
L 194.624742 117.452085 
L 194.624742 110.828234 
L 173.48311 110.828234 
z
" clip-path="url(#p106ef89c25)" style="fill: #f78c6b"/>
   </g>
   <g id="patch_15">
    <path d="M 215.766375 166.562537 
L 236.908007 166.562537 
L 236.908007 166.562537 
L 215.766375 166.562537 
z
" clip-path="url(#p106ef89c25)" style="fill: #f78c6b"/>
   </g>
   <g id="patch_16">
    <path d="M 258.049639 117.452085 
L 279.191272 117.452085 
L 279.191272 186.234819 
L 258.049639 186.234819 
z
" clip-path="url(#p106ef89c25)" style="fill: #f78c6b"/>
   </g>
   <g id="patch_17">
    <path d="M 300.332904 117.452085 
L 321.474536 117.452085 
L 321.474536 141.418194 
L 300.332904 141.418194 
z
" clip-path="url(#p106ef89c25)" style="fill: #f78c6b"/>
   </g>
   <g id="patch_18">
    <path d="M 342.616169 117.452085 
L 363.757801 117.452085 
L 363.757801 140.276951 
L 342.616169 140.276951 
z
" clip-path="url(#p106ef89c25)" style="fill: #f78c6b"/>
   </g>
   <g id="patch_19">
    <path d="M 46.633316 117.452085 
L 67.774948 117.452085 
L 67.774948 117.452085 
L 46.633316 117.452085 
z
" clip-path="url(#p106ef89c25)" style="fill: #ffd166"/>
   </g>
   <g id="patch_20">
    <path d="M 88.916581 97.49111 
L 110.058213 97.49111 
L 110.058213 87.503224 
L 88.916581 87.503224 
z
" clip-path="url(#p106ef89c25)" style="fill: #ffd166"/>
   </g>
   <g id="patch_21">
    <path d="M 131.199845 110.497042 
L 152.341478 110.497042 
L 152.341478 101.618921 
L 131.199845 101.618921 
z
" clip-path="url(#p106ef89c25)" style="fill: #ffd166"/>
   </g>
   <g id="patch_22">
    <path d="M 173.48311 117.452085 
L 194.624742 117.452085 
L 194.624742 117.452085 
L 173.48311 117.452085 
z
" clip-path="url(#p106ef89c25)" style="fill: #ffd166"/>
   </g>
   <g id="patch_23">
    <path d="M 215.766375 166.562537 
L 236.908007 166.562537 
L 236.908007 166.562537 
L 215.766375 166.562537 
z
" clip-path="url(#p106ef89c25)" style="fill: #ffd166"/>
   </g>
   <g id="patch_24">
    <path d="M 258.049639 117.452085 
L 279.191272 117.452085 
L 279.191272 107.464199 
L 258.049639 107.464199 
z
" clip-path="url(#p106ef89c25)" style="fill: #ffd166"/>
   </g>
   <g id="patch_25">
    <path d="M 300.332904 117.452085 
L 321.474536 117.452085 
L 321.474536 108.573964 
L 300.332904 108.573964 
z
" clip-path="url(#p106ef89c25)" style="fill: #ffd166"/>
   </g>
   <g id="patch_26">
    <path d="M 342.616169 140.276951 
L 363.757801 140.276951 
L 363.757801 140.276951 
L 342.616169 140.276951 
z
" clip-path="url(#p106ef89c25)" style="fill: #ffd166"/>
   </g>
   <g id="patch_27">
    <path d="M 46.633316 105.750895 
L 67.774948 105.750895 
L 67.774948 59.044891 
L 46.633316 59.044891 
z
" clip-path="url(#p106ef89c25)" style="fill: #06d6a0"/>
   </g>
   <g id="patch_28">
    <path d="M 88.916581 87.503224 
L 110.058213 87.503224 
L 110.058213 73.246931 
L 88.916581 73.246931 
z
" clip-path="url(#p106ef89c25)" style="fill: #06d6a0"/>
   </g>
   <g id="patch_29">
    <path d="M 131.199845 101.618921 
L 152.341478 101.618921 
L 152.341478 49.314144 
L 131.199845 49.314144 
z
" clip-path="url(#p106ef89c25)" style="fill: #06d6a0"/>
   </g>
   <g id="patch_30">
    <path d="M 173.48311 110.828234 
L 194.624742 110.828234 
L 194.624742 56.145968 
L 173.48311 56.145968 
z
" clip-path="url(#p106ef89c25)" style="fill: #06d6a0"/>
   </g>
   <g id="patch_31">
    <path d="M 215.766375 117.452085 
L 236.908007 117.452085 
L 236.908007 70.746081 
L 215.766375 70.746081 
z
" clip-path="url(#p106ef89c25)" style="fill: #06d6a0"/>
   </g>
   <g id="patch_32">
    <path d="M 258.049639 107.464199 
L 279.191272 107.464199 
L 279.191272 93.207905 
L 258.049639 93.207905 
z
" clip-path="url(#p106ef89c25)" style="fill: #06d6a0"/>
   </g>
   <g id="patch_33">
    <path d="M 300.332904 108.573964 
L 321.474536 108.573964 
L 321.474536 56.269188 
L 300.332904 56.269188 
z
" clip-path="url(#p106ef89c25)" style="fill: #06d6a0"/>
   </g>
   <g id="patch_34">
    <path d="M 342.616169 117.452085 
L 363.757801 117.452085 
L 363.757801 62.769819 
L 342.616169 62.769819 
z
" clip-path="url(#p106ef89c25)" style="fill: #06d6a0"/>
   </g>
   <g id="patch_35">
    <path d="M 46.633316 59.044891 
L 67.774948 59.044891 
L 67.774948 57.946966 
L 46.633316 57.946966 
z
" clip-path="url(#p106ef89c25)" style="fill: #073b4c"/>
   </g>
   <g id="patch_36">
    <path d="M 88.916581 73.246931 
L 110.058213 73.246931 
L 110.058213 72.81468 
L 88.916581 72.81468 
z
" clip-path="url(#p106ef89c25)" style="fill: #073b4c"/>
   </g>
   <g id="patch_37">
    <path d="M 131.199845 49.314144 
L 152.341478 49.314144 
L 152.341478 48.900525 
L 131.199845 48.900525 
z
" clip-path="url(#p106ef89c25)" style="fill: #073b4c"/>
   </g>
   <g id="patch_38">
    <path d="M 173.48311 117.452085 
L 194.624742 117.452085 
L 194.624742 117.452085 
L 173.48311 117.452085 
z
" clip-path="url(#p106ef89c25)" style="fill: #073b4c"/>
   </g>
   <g id="patch_39">
    <path d="M 215.766375 70.746081 
L 236.908007 70.746081 
L 236.908007 69.648156 
L 215.766375 69.648156 
z
" clip-path="url(#p106ef89c25)" style="fill: #073b4c"/>
   </g>
   <g id="patch_40">
    <path d="M 258.049639 93.207905 
L 279.191272 93.207905 
L 279.191272 92.775655 
L 258.049639 92.775655 
z
" clip-path="url(#p106ef89c25)" style="fill: #073b4c"/>
   </g>
   <g id="patch_41">
    <path d="M 300.332904 56.269188 
L 321.474536 56.269188 
L 321.474536 55.855569 
L 300.332904 55.855569 
z
" clip-path="url(#p106ef89c25)" style="fill: #073b4c"/>
   </g>
   <g id="patch_42">
    <path d="M 342.616169 140.276951 
L 363.757801 140.276951 
L 363.757801 140.276951 
L 342.616169 140.276951 
z
" clip-path="url(#p106ef89c25)" style="fill: #073b4c"/>
   </g>
   <g id="patch_43">
    <path d="M 46.633316 57.946966 
L 67.774948 57.946966 
L 67.774948 35.022837 
L 46.633316 35.022837 
z
" clip-path="url(#p106ef89c25)" style="fill: #118ab2"/>
   </g>
   <g id="patch_44">
    <path d="M 88.916581 72.81468 
L 110.058213 72.81468 
L 110.058213 67.722466 
L 88.916581 67.722466 
z
" clip-path="url(#p106ef89c25)" style="fill: #118ab2"/>
   </g>
   <g id="patch_45">
    <path d="M 131.199845 117.452085 
L 152.341478 117.452085 
L 152.341478 117.452085 
L 131.199845 117.452085 
z
" clip-path="url(#p106ef89c25)" style="fill: #118ab2"/>
   </g>
   <g id="patch_46">
    <path d="M 173.48311 117.452085 
L 194.624742 117.452085 
L 194.624742 117.452085 
L 173.48311 117.452085 
z
" clip-path="url(#p106ef89c25)" style="fill: #118ab2"/>
   </g>
   <g id="patch_47">
    <path d="M 215.766375 69.648156 
L 236.908007 69.648156 
L 236.908007 46.724027 
L 215.766375 46.724027 
z
" clip-path="url(#p106ef89c25)" style="fill: #118ab2"/>
   </g>
   <g id="patch_48">
    <path d="M 258.049639 92.775655 
L 279.191272 92.775655 
L 279.191272 87.68344 
L 258.049639 87.68344 
z
" clip-path="url(#p106ef89c25)" style="fill: #118ab2"/>
   </g>
   <g id="patch_49">
    <path d="M 300.332904 141.418194 
L 321.474536 141.418194 
L 321.474536 141.418194 
L 300.332904 141.418194 
z
" clip-path="url(#p106ef89c25)" style="fill: #118ab2"/>
   </g>
   <g id="patch_50">
    <path d="M 342.616169 140.276951 
L 363.757801 140.276951 
L 363.757801 140.276951 
L 342.616169 140.276951 
z
" clip-path="url(#p106ef89c25)" style="fill: #118ab2"/>
   </g>
   <g id="PathCollection_1">
    <defs>
     <path id="m7a6ff648b2" d="M 0 2.236068 
C 0.593012 2.236068 1.161816 2.000462 1.581139 1.581139 
C 2.000462 1.161816 2.236068 0.593012 2.236068 0 
C 2.236068 -0.593012 2.000462 -1.161816 1.581139 -1.581139 
C 1.161816 -2.000462 0.593012 -2.236068 0 -2.236068 
C -0.593012 -2.236068 -1.161816 -2.000462 -1.581139 -1.581139 
C -2.000462 -1.161816 -2.236068 -0.593012 -2.236068 0 
C -2.236068 0.593012 -2.000462 1.161816 -1.581139 1.581139 
C -1.161816 2.000462 -0.593012 2.236068 0 2.236068 
z
" style="stroke: #000000"/>
    </defs>
    <g clip-path="url(#p106ef89c25)">
     <use xlink:href="#m7a6ff648b2" x="57.204132" y="35.022837" style="fill: #ffffff; stroke: #000000"/>
     <use xlink:href="#m7a6ff648b2" x="99.487397" y="67.722466" style="fill: #ffffff; stroke: #000000"/>
     <use xlink:href="#m7a6ff648b2" x="141.770662" y="48.900525" style="fill: #ffffff; stroke: #000000"/>
     <use xlink:href="#m7a6ff648b2" x="184.053926" y="56.145968" style="fill: #ffffff; stroke: #000000"/>
     <use xlink:href="#m7a6ff648b2" x="226.337191" y="95.834479" style="fill: #ffffff; stroke: #000000"/>
     <use xlink:href="#m7a6ff648b2" x="268.620455" y="156.466174" style="fill: #ffffff; stroke: #000000"/>
     <use xlink:href="#m7a6ff648b2" x="310.90372" y="79.821678" style="fill: #ffffff; stroke: #000000"/>
     <use xlink:href="#m7a6ff648b2" x="353.186985" y="85.594685" style="fill: #ffffff; stroke: #000000"/>
    </g>
   </g>
   <g id="PathCollection_2">
    <defs>
     <path id="m408d64afcb" d="M 0 3.162278 
L 3.162278 0 
L 0 -3.162278 
L -3.162278 0 
z
" style="stroke: #ffffff"/>
    </defs>
    <g clip-path="url(#p106ef89c25)">
     <use xlink:href="#m408d64afcb" x="57.204132" y="87.050008" style="fill: #8763c9; stroke: #ffffff"/>
     <use xlink:href="#m408d64afcb" x="99.487397" y="86.267352" style="fill: #8763c9; stroke: #ffffff"/>
     <use xlink:href="#m408d64afcb" x="141.770662" y="106.374072" style="fill: #8763c9; stroke: #ffffff"/>
     <use xlink:href="#m408d64afcb" x="184.053926" y="115.210849" style="fill: #8763c9; stroke: #ffffff"/>
     <use xlink:href="#m408d64afcb" x="226.337191" y="156.915743" style="fill: #8763c9; stroke: #ffffff"/>
     <use xlink:href="#m408d64afcb" x="268.620455" y="176.888195" style="fill: #8763c9; stroke: #ffffff"/>
     <use xlink:href="#m408d64afcb" x="310.90372" y="137.949279" style="fill: #8763c9; stroke: #ffffff"/>
     <use xlink:href="#m408d64afcb" x="353.186985" y="145.282475" style="fill: #8763c9; stroke: #ffffff"/>
    </g>
   </g>
   <g id="matplotlib.axis_1"/>
   <g id="matplotlib.axis_2">
    <g id="ytick_1">
     <g id="line2d_2">
      <defs>
       <path id="m639e577df0" d="M 0 0 
L -3.5 0 
" style="stroke: #000000; stroke-width: 0.8"/>
      </defs>
      <g>
       <use xlink:href="#m639e577df0" x="36.0625" y="155.643697" style="stroke: #000000; stroke-width: 0.8"/>
      </g>
     </g>
     <g id="text_1">
      <!-- −6 -->
      <g transform="translate(20 158.643697) scale(0.08 -0.08)">
       <defs>
        <path id="Roboto-Regular-2212" d="M 3134 2034 
L 525 2034 
L 525 2506 
L 3134 2506 
L 3134 2034 
z
" transform="scale(0.015625)"/>
        <path id="Roboto-Regular-36" d="M 2647 4553 
L 2647 4063 
L 2541 4063 
Q 1866 4050 1466 3662 
Q 1066 3275 1003 2572 
Q 1363 2984 1984 2984 
Q 2578 2984 2933 2565 
Q 3288 2147 3288 1484 
Q 3288 781 2905 359 
Q 2522 -63 1878 -63 
Q 1225 -63 819 439 
Q 413 941 413 1731 
L 413 1953 
Q 413 3209 948 3873 
Q 1484 4538 2544 4553 
L 2647 4553 
z
M 1888 2503 
Q 1591 2503 1341 2325 
Q 1091 2147 994 1878 
L 994 1666 
Q 994 1103 1247 759 
Q 1500 416 1878 416 
Q 2269 416 2492 703 
Q 2716 991 2716 1456 
Q 2716 1925 2489 2214 
Q 2263 2503 1888 2503 
z
" transform="scale(0.015625)"/>
       </defs>
       <use xlink:href="#Roboto-Regular-2212"/>
       <use xlink:href="#Roboto-Regular-36" x="57.128906"/>
      </g>
     </g>
    </g>
    <g id="ytick_2">
     <g id="line2d_3">
      <g>
       <use xlink:href="#m639e577df0" x="36.0625" y="117.452085" style="stroke: #000000; stroke-width: 0.8"/>
      </g>
     </g>
     <g id="text_2">
      <!-- 0 -->
      <g transform="translate(24.57 120.452085) scale(0.08 -0.08)">
       <defs>
        <path id="Roboto-Regular-30" d="M 3231 1941 
Q 3231 925 2884 431 
Q 2538 -63 1800 -63 
Q 1072 -63 722 420 
Q 372 903 359 1863 
L 359 2634 
Q 359 3638 706 4125 
Q 1053 4613 1794 4613 
Q 2528 4613 2875 4142 
Q 3222 3672 3231 2691 
L 3231 1941 
z
M 2653 2731 
Q 2653 3466 2447 3802 
Q 2241 4138 1794 4138 
Q 1350 4138 1147 3803 
Q 944 3469 938 2775 
L 938 1850 
Q 938 1113 1152 761 
Q 1366 409 1800 409 
Q 2228 409 2436 740 
Q 2644 1072 2653 1784 
L 2653 2731 
z
" transform="scale(0.015625)"/>
       </defs>
       <use xlink:href="#Roboto-Regular-30"/>
      </g>
     </g>
    </g>
    <g id="ytick_3">
     <g id="line2d_4">
      <g>
       <use xlink:href="#m639e577df0" x="36.0625" y="79.260472" style="stroke: #000000; stroke-width: 0.8"/>
      </g>
     </g>
     <g id="text_3">
      <!-- 6 -->
      <g transform="translate(24.57 82.260472) scale(0.08 -0.08)">
       <use xlink:href="#Roboto-Regular-36"/>
      </g>
     </g>
    </g>
    <g id="ytick_4">
     <g id="line2d_5">
      <g>
       <use xlink:href="#m639e577df0" x="36.0625" y="41.06886" style="stroke: #000000; stroke-width: 0.8"/>
      </g>
     </g>
     <g id="text_4">
      <!-- 12 -->
      <g transform="translate(20.0775 44.06886) scale(0.08 -0.08)">
       <defs>
        <path id="Roboto-Regular-31" d="M 2278 0 
L 1697 0 
L 1697 3853 
L 531 3425 
L 531 3950 
L 2188 4572 
L 2278 4572 
L 2278 0 
z
" transform="scale(0.015625)"/>
        <path id="Roboto-Regular-32" d="M 3359 0 
L 378 0 
L 378 416 
L 1953 2166 
Q 2303 2563 2436 2811 
Q 2569 3059 2569 3325 
Q 2569 3681 2353 3909 
Q 2138 4138 1778 4138 
Q 1347 4138 1108 3892 
Q 869 3647 869 3209 
L 291 3209 
Q 291 3838 695 4225 
Q 1100 4613 1778 4613 
Q 2413 4613 2781 4280 
Q 3150 3947 3150 3394 
Q 3150 2722 2294 1794 
L 1075 472 
L 3359 472 
L 3359 0 
z
" transform="scale(0.015625)"/>
       </defs>
       <use xlink:href="#Roboto-Regular-31"/>
       <use xlink:href="#Roboto-Regular-32" x="56.152344"/>
      </g>
     </g>
    </g>
    <g id="text_5">
     <!-- Climate change impact [kg CO$_\mathdefault{2}$-eq kg$^\mathdefault{-1}$] -->
     <g transform="translate(14.32 177.151128) rotate(-90) scale(0.08 -0.08)">
      <defs>
       <path id="Roboto-Regular-43" d="M 3875 1444 
Q 3791 722 3342 329 
Q 2894 -63 2150 -63 
Q 1344 -63 858 515 
Q 372 1094 372 2063 
L 372 2500 
Q 372 3134 598 3615 
Q 825 4097 1240 4355 
Q 1656 4613 2203 4613 
Q 2928 4613 3365 4208 
Q 3803 3803 3875 3088 
L 3272 3088 
Q 3194 3631 2933 3875 
Q 2672 4119 2203 4119 
Q 1628 4119 1301 3694 
Q 975 3269 975 2484 
L 975 2044 
Q 975 1303 1284 865 
Q 1594 428 2150 428 
Q 2650 428 2917 654 
Q 3184 881 3272 1444 
L 3875 1444 
z
" transform="scale(0.015625)"/>
       <path id="Roboto-Regular-6c" d="M 1066 0 
L 488 0 
L 488 4800 
L 1066 4800 
L 1066 0 
z
" transform="scale(0.015625)"/>
       <path id="Roboto-Regular-69" d="M 1066 0 
L 488 0 
L 488 3381 
L 1066 3381 
L 1066 0 
z
M 441 4278 
Q 441 4419 527 4516 
Q 613 4613 781 4613 
Q 950 4613 1037 4516 
Q 1125 4419 1125 4278 
Q 1125 4138 1037 4044 
Q 950 3950 781 3950 
Q 613 3950 527 4044 
Q 441 4138 441 4278 
z
" transform="scale(0.015625)"/>
       <path id="Roboto-Regular-6d" d="M 981 3381 
L 997 3006 
Q 1369 3444 2000 3444 
Q 2709 3444 2966 2900 
Q 3134 3144 3404 3294 
Q 3675 3444 4044 3444 
Q 5156 3444 5175 2266 
L 5175 0 
L 4597 0 
L 4597 2231 
Q 4597 2594 4431 2773 
Q 4266 2953 3875 2953 
Q 3553 2953 3340 2761 
Q 3128 2569 3094 2244 
L 3094 0 
L 2513 0 
L 2513 2216 
Q 2513 2953 1791 2953 
Q 1222 2953 1013 2469 
L 1013 0 
L 434 0 
L 434 3381 
L 981 3381 
z
" transform="scale(0.015625)"/>
       <path id="Roboto-Regular-61" d="M 2525 0 
Q 2475 100 2444 356 
Q 2041 -63 1481 -63 
Q 981 -63 661 220 
Q 341 503 341 938 
Q 341 1466 742 1758 
Q 1144 2050 1872 2050 
L 2434 2050 
L 2434 2316 
Q 2434 2619 2253 2798 
Q 2072 2978 1719 2978 
Q 1409 2978 1200 2822 
Q 991 2666 991 2444 
L 409 2444 
Q 409 2697 589 2933 
Q 769 3169 1076 3306 
Q 1384 3444 1753 3444 
Q 2338 3444 2669 3151 
Q 3000 2859 3013 2347 
L 3013 791 
Q 3013 325 3131 50 
L 3131 0 
L 2525 0 
z
M 1566 441 
Q 1838 441 2081 581 
Q 2325 722 2434 947 
L 2434 1641 
L 1981 1641 
Q 919 1641 919 1019 
Q 919 747 1100 594 
Q 1281 441 1566 441 
z
" transform="scale(0.015625)"/>
       <path id="Roboto-Regular-74" d="M 1222 4200 
L 1222 3381 
L 1853 3381 
L 1853 2934 
L 1222 2934 
L 1222 838 
Q 1222 634 1306 532 
Q 1391 431 1594 431 
Q 1694 431 1869 469 
L 1869 0 
Q 1641 -63 1425 -63 
Q 1038 -63 841 171 
Q 644 406 644 838 
L 644 2934 
L 28 2934 
L 28 3381 
L 644 3381 
L 644 4200 
L 1222 4200 
z
" transform="scale(0.015625)"/>
       <path id="Roboto-Regular-65" d="M 1841 -63 
Q 1153 -63 722 389 
Q 291 841 291 1597 
L 291 1703 
Q 291 2206 483 2601 
Q 675 2997 1020 3220 
Q 1366 3444 1769 3444 
Q 2428 3444 2793 3009 
Q 3159 2575 3159 1766 
L 3159 1525 
L 869 1525 
Q 881 1025 1161 717 
Q 1441 409 1872 409 
Q 2178 409 2390 534 
Q 2603 659 2763 866 
L 3116 591 
Q 2691 -63 1841 -63 
z
M 1769 2969 
Q 1419 2969 1181 2714 
Q 944 2459 888 2000 
L 2581 2000 
L 2581 2044 
Q 2556 2484 2343 2726 
Q 2131 2969 1769 2969 
z
" transform="scale(0.015625)"/>
       <path id="Roboto-Regular-20" transform="scale(0.015625)"/>
       <path id="Roboto-Regular-63" d="M 1794 409 
Q 2103 409 2334 596 
Q 2566 784 2591 1066 
L 3138 1066 
Q 3122 775 2937 512 
Q 2753 250 2445 93 
Q 2138 -63 1794 -63 
Q 1103 -63 695 398 
Q 288 859 288 1659 
L 288 1756 
Q 288 2250 469 2634 
Q 650 3019 989 3231 
Q 1328 3444 1791 3444 
Q 2359 3444 2736 3103 
Q 3113 2763 3138 2219 
L 2591 2219 
Q 2566 2547 2342 2758 
Q 2119 2969 1791 2969 
Q 1350 2969 1108 2651 
Q 866 2334 866 1734 
L 866 1625 
Q 866 1041 1106 725 
Q 1347 409 1794 409 
z
" transform="scale(0.015625)"/>
       <path id="Roboto-Regular-68" d="M 1016 2972 
Q 1400 3444 2016 3444 
Q 3088 3444 3097 2234 
L 3097 0 
L 2519 0 
L 2519 2238 
Q 2516 2603 2352 2778 
Q 2188 2953 1841 2953 
Q 1559 2953 1346 2803 
Q 1134 2653 1016 2409 
L 1016 0 
L 438 0 
L 438 4800 
L 1016 4800 
L 1016 2972 
z
" transform="scale(0.015625)"/>
       <path id="Roboto-Regular-6e" d="M 984 3381 
L 1003 2956 
Q 1391 3444 2016 3444 
Q 3088 3444 3097 2234 
L 3097 0 
L 2519 0 
L 2519 2238 
Q 2516 2603 2352 2778 
Q 2188 2953 1841 2953 
Q 1559 2953 1346 2803 
Q 1134 2653 1016 2409 
L 1016 0 
L 438 0 
L 438 3381 
L 984 3381 
z
" transform="scale(0.015625)"/>
       <path id="Roboto-Regular-67" d="M 300 1719 
Q 300 2509 665 2976 
Q 1031 3444 1634 3444 
Q 2253 3444 2600 3006 
L 2628 3381 
L 3156 3381 
L 3156 81 
Q 3156 -575 2767 -953 
Q 2378 -1331 1722 -1331 
Q 1356 -1331 1006 -1175 
Q 656 -1019 472 -747 
L 772 -400 
Q 1144 -859 1681 -859 
Q 2103 -859 2339 -621 
Q 2575 -384 2575 47 
L 2575 338 
Q 2228 -63 1628 -63 
Q 1034 -63 667 415 
Q 300 894 300 1719 
z
M 881 1653 
Q 881 1081 1115 754 
Q 1350 428 1772 428 
Q 2319 428 2575 925 
L 2575 2469 
Q 2309 2953 1778 2953 
Q 1356 2953 1118 2625 
Q 881 2297 881 1653 
z
" transform="scale(0.015625)"/>
       <path id="Roboto-Regular-70" d="M 3294 1653 
Q 3294 881 2941 409 
Q 2588 -63 1984 -63 
Q 1369 -63 1016 328 
L 1016 -1300 
L 438 -1300 
L 438 3381 
L 966 3381 
L 994 3006 
Q 1347 3444 1975 3444 
Q 2584 3444 2939 2984 
Q 3294 2525 3294 1706 
L 3294 1653 
z
M 2716 1719 
Q 2716 2291 2472 2622 
Q 2228 2953 1803 2953 
Q 1278 2953 1016 2488 
L 1016 872 
Q 1275 409 1809 409 
Q 2225 409 2470 739 
Q 2716 1069 2716 1719 
z
" transform="scale(0.015625)"/>
       <path id="Roboto-Regular-5b" d="M 1634 4725 
L 1038 4725 
L 1038 -500 
L 1634 -500 
L 1634 -975 
L 456 -975 
L 456 5200 
L 1634 5200 
L 1634 4725 
z
" transform="scale(0.015625)"/>
       <path id="Roboto-Regular-6b" d="M 1381 1566 
L 1019 1188 
L 1019 0 
L 441 0 
L 441 4800 
L 1019 4800 
L 1019 1897 
L 1328 2269 
L 2381 3381 
L 3084 3381 
L 1769 1969 
L 3238 0 
L 2559 0 
L 1381 1566 
z
" transform="scale(0.015625)"/>
       <path id="Roboto-Regular-4f" d="M 4028 2128 
Q 4028 1459 3803 961 
Q 3578 463 3165 200 
Q 2753 -63 2203 -63 
Q 1666 -63 1250 201 
Q 834 466 604 955 
Q 375 1444 369 2088 
L 369 2416 
Q 369 3072 597 3575 
Q 825 4078 1242 4345 
Q 1659 4613 2197 4613 
Q 2744 4613 3161 4348 
Q 3578 4084 3803 3582 
Q 4028 3081 4028 2416 
L 4028 2128 
z
M 3431 2422 
Q 3431 3231 3106 3664 
Q 2781 4097 2197 4097 
Q 1628 4097 1301 3664 
Q 975 3231 966 2463 
L 966 2128 
Q 966 1344 1295 895 
Q 1625 447 2203 447 
Q 2784 447 3103 870 
Q 3422 1294 3431 2084 
L 3431 2422 
z
" transform="scale(0.015625)"/>
       <path id="Roboto-Regular-2d" d="M 1641 1697 
L 116 1697 
L 116 2169 
L 1641 2169 
L 1641 1697 
z
" transform="scale(0.015625)"/>
       <path id="Roboto-Regular-71" d="M 297 1719 
Q 297 2516 662 2980 
Q 1028 3444 1644 3444 
Q 2244 3444 2591 3041 
L 2616 3381 
L 3147 3381 
L 3147 -1300 
L 2569 -1300 
L 2569 313 
Q 2219 -63 1638 -63 
Q 1025 -63 661 414 
Q 297 891 297 1678 
L 297 1719 
z
M 875 1653 
Q 875 1072 1120 740 
Q 1366 409 1781 409 
Q 2297 409 2569 866 
L 2569 2522 
Q 2294 2969 1788 2969 
Q 1369 2969 1122 2636 
Q 875 2303 875 1653 
z
" transform="scale(0.015625)"/>
       <path id="Roboto-Regular-5d" d="M 28 5200 
L 1209 5200 
L 1209 -975 
L 28 -975 
L 28 -500 
L 631 -500 
L 631 4725 
L 28 4725 
L 28 5200 
z
" transform="scale(0.015625)"/>
      </defs>
      <use xlink:href="#Roboto-Regular-43" transform="translate(0 0.7125)"/>
      <use xlink:href="#Roboto-Regular-6c" transform="translate(65.087891 0.7125)"/>
      <use xlink:href="#Roboto-Regular-69" transform="translate(89.355469 0.7125)"/>
      <use xlink:href="#Roboto-Regular-6d" transform="translate(113.623047 0.7125)"/>
      <use xlink:href="#Roboto-Regular-61" transform="translate(201.269531 0.7125)"/>
      <use xlink:href="#Roboto-Regular-74" transform="translate(255.664062 0.7125)"/>
      <use xlink:href="#Roboto-Regular-65" transform="translate(288.330078 0.7125)"/>
      <use xlink:href="#Roboto-Regular-20" transform="translate(341.308594 0.7125)"/>
      <use xlink:href="#Roboto-Regular-63" transform="translate(366.064453 0.7125)"/>
      <use xlink:href="#Roboto-Regular-68" transform="translate(418.408203 0.7125)"/>
      <use xlink:href="#Roboto-Regular-61" transform="translate(473.486328 0.7125)"/>
      <use xlink:href="#Roboto-Regular-6e" transform="translate(527.880859 0.7125)"/>
      <use xlink:href="#Roboto-Regular-67" transform="translate(583.056641 0.7125)"/>
      <use xlink:href="#Roboto-Regular-65" transform="translate(639.160156 0.7125)"/>
      <use xlink:href="#Roboto-Regular-20" transform="translate(692.138672 0.7125)"/>
      <use xlink:href="#Roboto-Regular-69" transform="translate(716.894531 0.7125)"/>
      <use xlink:href="#Roboto-Regular-6d" transform="translate(741.162109 0.7125)"/>
      <use xlink:href="#Roboto-Regular-70" transform="translate(828.808594 0.7125)"/>
      <use xlink:href="#Roboto-Regular-61" transform="translate(884.912109 0.7125)"/>
      <use xlink:href="#Roboto-Regular-63" transform="translate(939.306641 0.7125)"/>
      <use xlink:href="#Roboto-Regular-74" transform="translate(991.650391 0.7125)"/>
      <use xlink:href="#Roboto-Regular-20" transform="translate(1024.316406 0.7125)"/>
      <use xlink:href="#Roboto-Regular-5b" transform="translate(1049.072266 0.7125)"/>
      <use xlink:href="#Roboto-Regular-6b" transform="translate(1075.585938 0.7125)"/>
      <use xlink:href="#Roboto-Regular-67" transform="translate(1126.269531 0.7125)"/>
      <use xlink:href="#Roboto-Regular-20" transform="translate(1182.373047 0.7125)"/>
      <use xlink:href="#Roboto-Regular-43" transform="translate(1207.128906 0.7125)"/>
      <use xlink:href="#Roboto-Regular-4f" transform="translate(1272.216797 0.7125)"/>
      <use xlink:href="#Roboto-Regular-32" transform="translate(1341.923828 -15.69375) scale(0.7)"/>
      <use xlink:href="#Roboto-Regular-2d" transform="translate(1383.964844 0.7125)"/>
      <use xlink:href="#Roboto-Regular-65" transform="translate(1411.552734 0.7125)"/>
      <use xlink:href="#Roboto-Regular-71" transform="translate(1464.53125 0.7125)"/>
      <use xlink:href="#Roboto-Regular-20" transform="translate(1521.367188 0.7125)"/>
      <use xlink:href="#Roboto-Regular-6b" transform="translate(1546.123047 0.7125)"/>
      <use xlink:href="#Roboto-Regular-67" transform="translate(1596.806641 0.7125)"/>
      <use xlink:href="#Roboto-Regular-2212" transform="translate(1653.867188 38.99375) scale(0.7)"/>
      <use xlink:href="#Roboto-Regular-31" transform="translate(1693.857422 38.99375) scale(0.7)"/>
      <use xlink:href="#Roboto-Regular-5d" transform="translate(1735.898438 0.7125)"/>
     </g>
    </g>
   </g>
   <g id="line2d_6">
    <path d="M 205.195559 192.562256 
L 205.195559 20.7 
" clip-path="url(#p106ef89c25)" style="fill: none; stroke-dasharray: 1.85,0.8; stroke-dashoffset: 0; stroke: #808080; stroke-width: 0.5"/>
   </g>
   <g id="patch_51">
    <path d="M 36.0625 192.562256 
L 36.0625 20.7 
" style="fill: none; stroke: #000000; stroke-width: 0.8; stroke-linejoin: miter; stroke-linecap: square"/>
   </g>
   <g id="patch_52">
    <path d="M 374.328617 192.562256 
L 374.328617 20.7 
" style="fill: none; stroke: #000000; stroke-width: 0.8; stroke-linejoin: miter; stroke-linecap: square"/>
   </g>
   <g id="patch_53">
    <path d="M 36.0625 192.562256 
L 374.328617 192.562256 
" style="fill: none; stroke: #000000; stroke-width: 0.8; stroke-linejoin: miter; stroke-linecap: square"/>
   </g>
   <g id="patch_54">
    <path d="M 36.0625 20.7 
L 374.328617 20.7 
" style="fill: none; stroke: #000000; stroke-width: 0.8; stroke-linejoin: miter; stroke-linecap: square"/>
   </g>
   <g id="text_6">
    <!-- Fossil -->
    <g transform="translate(107.268873 33.430537) scale(0.1 -0.1)">
     <defs>
      <path id="Roboto-Bold-46" d="M 3144 1859 
L 1344 1859 
L 1344 0 
L 406 0 
L 406 4550 
L 3369 4550 
L 3369 3791 
L 1344 3791 
L 1344 2616 
L 3144 2616 
L 3144 1859 
z
" transform="scale(0.015625)"/>
      <path id="Roboto-Bold-6f" d="M 206 1722 
Q 206 2225 400 2619 
Q 594 3013 958 3228 
Q 1322 3444 1803 3444 
Q 2488 3444 2920 3025 
Q 3353 2606 3403 1888 
L 3409 1656 
Q 3409 878 2975 407 
Q 2541 -63 1809 -63 
Q 1078 -63 642 406 
Q 206 875 206 1681 
L 206 1722 
z
M 1109 1656 
Q 1109 1175 1290 920 
Q 1472 666 1809 666 
Q 2138 666 2322 917 
Q 2506 1169 2506 1722 
Q 2506 2194 2322 2453 
Q 2138 2713 1803 2713 
Q 1472 2713 1290 2455 
Q 1109 2197 1109 1656 
z
" transform="scale(0.015625)"/>
      <path id="Roboto-Bold-73" d="M 2178 934 
Q 2178 1100 2014 1195 
Q 1850 1291 1488 1366 
Q 281 1619 281 2391 
Q 281 2841 654 3142 
Q 1028 3444 1631 3444 
Q 2275 3444 2661 3141 
Q 3047 2838 3047 2353 
L 2144 2353 
Q 2144 2547 2019 2673 
Q 1894 2800 1628 2800 
Q 1400 2800 1275 2697 
Q 1150 2594 1150 2434 
Q 1150 2284 1292 2192 
Q 1434 2100 1771 2033 
Q 2109 1966 2341 1881 
Q 3056 1619 3056 972 
Q 3056 509 2659 223 
Q 2263 -63 1634 -63 
Q 1209 -63 879 89 
Q 550 241 362 505 
Q 175 769 175 1075 
L 1031 1075 
Q 1044 834 1209 706 
Q 1375 578 1653 578 
Q 1913 578 2045 676 
Q 2178 775 2178 934 
z
" transform="scale(0.015625)"/>
      <path id="Roboto-Bold-69" d="M 1300 0 
L 394 0 
L 394 3381 
L 1300 3381 
L 1300 0 
z
M 341 4256 
Q 341 4459 477 4590 
Q 613 4722 847 4722 
Q 1078 4722 1215 4590 
Q 1353 4459 1353 4256 
Q 1353 4050 1214 3919 
Q 1075 3788 847 3788 
Q 619 3788 480 3919 
Q 341 4050 341 4256 
z
" transform="scale(0.015625)"/>
      <path id="Roboto-Bold-6c" d="M 1300 0 
L 394 0 
L 394 4800 
L 1300 4800 
L 1300 0 
z
" transform="scale(0.015625)"/>
     </defs>
     <use xlink:href="#Roboto-Bold-46"/>
     <use xlink:href="#Roboto-Bold-6f" x="54.785156"/>
     <use xlink:href="#Roboto-Bold-73" x="111.328125"/>
     <use xlink:href="#Roboto-Bold-73" x="162.744141"/>
     <use xlink:href="#Roboto-Bold-69" x="214.160156"/>
     <use xlink:href="#Roboto-Bold-6c" x="240.673828"/>
    </g>
   </g>
   <g id="text_7">
    <!-- Green -->
    <g transform="translate(276.328494 33.430537) scale(0.1 -0.1)">
     <defs>
      <path id="Roboto-Bold-47" d="M 4006 575 
Q 3753 272 3290 104 
Q 2828 -63 2266 -63 
Q 1675 -63 1229 195 
Q 784 453 542 943 
Q 300 1434 294 2097 
L 294 2406 
Q 294 3088 523 3586 
Q 753 4084 1186 4348 
Q 1619 4613 2200 4613 
Q 3009 4613 3465 4227 
Q 3922 3841 4006 3103 
L 3094 3103 
Q 3031 3494 2817 3675 
Q 2603 3856 2228 3856 
Q 1750 3856 1500 3497 
Q 1250 3138 1247 2428 
L 1247 2138 
Q 1247 1422 1519 1056 
Q 1791 691 2316 691 
Q 2844 691 3069 916 
L 3069 1700 
L 2216 1700 
L 2216 2391 
L 4006 2391 
L 4006 575 
z
" transform="scale(0.015625)"/>
      <path id="Roboto-Bold-72" d="M 2247 2534 
Q 2063 2559 1922 2559 
Q 1409 2559 1250 2213 
L 1250 0 
L 347 0 
L 347 3381 
L 1200 3381 
L 1225 2978 
Q 1497 3444 1978 3444 
Q 2128 3444 2259 3403 
L 2247 2534 
z
" transform="scale(0.015625)"/>
      <path id="Roboto-Bold-65" d="M 1903 -63 
Q 1159 -63 692 393 
Q 225 850 225 1609 
L 225 1697 
Q 225 2206 422 2607 
Q 619 3009 980 3226 
Q 1341 3444 1803 3444 
Q 2497 3444 2895 3006 
Q 3294 2569 3294 1766 
L 3294 1397 
L 1141 1397 
Q 1184 1066 1404 866 
Q 1625 666 1963 666 
Q 2484 666 2778 1044 
L 3222 547 
Q 3019 259 2672 98 
Q 2325 -63 1903 -63 
z
M 1800 2713 
Q 1531 2713 1364 2531 
Q 1197 2350 1150 2013 
L 2406 2013 
L 2406 2084 
Q 2400 2384 2244 2548 
Q 2088 2713 1800 2713 
z
" transform="scale(0.015625)"/>
      <path id="Roboto-Bold-6e" d="M 1178 3381 
L 1206 2991 
Q 1569 3444 2178 3444 
Q 2716 3444 2978 3128 
Q 3241 2813 3247 2184 
L 3247 0 
L 2344 0 
L 2344 2163 
Q 2344 2450 2219 2579 
Q 2094 2709 1803 2709 
Q 1422 2709 1231 2384 
L 1231 0 
L 328 0 
L 328 3381 
L 1178 3381 
z
" transform="scale(0.015625)"/>
     </defs>
     <use xlink:href="#Roboto-Bold-47"/>
     <use xlink:href="#Roboto-Bold-72" x="68.115234"/>
     <use xlink:href="#Roboto-Bold-65" x="104.589844"/>
     <use xlink:href="#Roboto-Bold-65" x="158.642578"/>
     <use xlink:href="#Roboto-Bold-6e" x="212.695312"/>
    </g>
   </g>
   <g id="text_8">
    <!-- a -->
    <g transform="translate(202.51509 14.7) scale(0.1 -0.1)">
     <defs>
      <path id="Roboto-Bold-61" d="M 2306 0 
Q 2244 122 2216 303 
Q 1888 -63 1363 -63 
Q 866 -63 539 225 
Q 213 513 213 950 
Q 213 1488 611 1775 
Q 1009 2063 1763 2066 
L 2178 2066 
L 2178 2259 
Q 2178 2494 2058 2634 
Q 1938 2775 1678 2775 
Q 1450 2775 1320 2665 
Q 1191 2556 1191 2366 
L 288 2366 
Q 288 2659 469 2909 
Q 650 3159 981 3301 
Q 1313 3444 1725 3444 
Q 2350 3444 2717 3130 
Q 3084 2816 3084 2247 
L 3084 781 
Q 3088 300 3219 53 
L 3219 0 
L 2306 0 
z
M 1559 628 
Q 1759 628 1928 717 
Q 2097 806 2178 956 
L 2178 1538 
L 1841 1538 
Q 1163 1538 1119 1069 
L 1116 1016 
Q 1116 847 1234 737 
Q 1353 628 1559 628 
z
" transform="scale(0.015625)"/>
     </defs>
     <use xlink:href="#Roboto-Bold-61"/>
    </g>
   </g>
   <g id="legend_1"/>
  </g>
  <g id="axes_2">
   <g id="patch_55">
    <path d="M 36.0625 386.564512 
L 374.328617 386.564512 
L 374.328617 214.702256 
L 36.0625 214.702256 
z
" style="fill: #ffffff"/>
   </g>
   <g id="patch_56">
    <path d="M 46.633316 388.412493 
L 67.774948 388.412493 
L 67.774948 385.305744 
L 46.633316 385.305744 
z
" clip-path="url(#p5b8107ec7e)" style="fill: #ef476f"/>
   </g>
   <g id="patch_57">
    <path d="M 88.916581 388.412493 
L 110.058213 388.412493 
L 110.058213 388.412493 
L 88.916581 388.412493 
z
" clip-path="url(#p5b8107ec7e)" style="fill: #ef476f"/>
   </g>
   <g id="patch_58">
    <path d="M 131.199845 388.412493 
L 152.341478 388.412493 
L 152.341478 388.412493 
L 131.199845 388.412493 
z
" clip-path="url(#p5b8107ec7e)" style="fill: #ef476f"/>
   </g>
   <g id="patch_59">
    <path d="M 173.48311 388.412493 
L 194.624742 388.412493 
L 194.624742 388.412493 
L 173.48311 388.412493 
z
" clip-path="url(#p5b8107ec7e)" style="fill: #ef476f"/>
   </g>
   <g id="patch_60">
    <path d="M 215.766375 388.412493 
L 236.908007 388.412493 
L 236.908007 378.394479 
L 215.766375 378.394479 
z
" clip-path="url(#p5b8107ec7e)" style="fill: #ef476f"/>
   </g>
   <g id="patch_61">
    <path d="M 258.049639 388.412493 
L 279.191272 388.412493 
L 279.191272 388.412493 
L 258.049639 388.412493 
z
" clip-path="url(#p5b8107ec7e)" style="fill: #ef476f"/>
   </g>
   <g id="patch_62">
    <path d="M 300.332904 388.412493 
L 321.474536 388.412493 
L 321.474536 388.412493 
L 300.332904 388.412493 
z
" clip-path="url(#p5b8107ec7e)" style="fill: #ef476f"/>
   </g>
   <g id="patch_63">
    <path d="M 342.616169 388.412493 
L 363.757801 388.412493 
L 363.757801 388.412493 
L 342.616169 388.412493 
z
" clip-path="url(#p5b8107ec7e)" style="fill: #ef476f"/>
   </g>
   <g id="patch_64">
    <path d="M 46.633316 388.412493 
L 67.774948 388.412493 
L 67.774948 388.412493 
L 46.633316 388.412493 
z
" clip-path="url(#p5b8107ec7e)" style="fill: #f78c6b"/>
   </g>
   <g id="patch_65">
    <path d="M 88.916581 388.412493 
L 110.058213 388.412493 
L 110.058213 358.229257 
L 88.916581 358.229257 
z
" clip-path="url(#p5b8107ec7e)" style="fill: #f78c6b"/>
   </g>
   <g id="patch_66">
    <path d="M 131.199845 388.412493 
L 152.341478 388.412493 
L 152.341478 377.895686 
L 131.199845 377.895686 
z
" clip-path="url(#p5b8107ec7e)" style="fill: #f78c6b"/>
   </g>
   <g id="patch_67">
    <path d="M 173.48311 388.412493 
L 194.624742 388.412493 
L 194.624742 380.630056 
L 173.48311 380.630056 
z
" clip-path="url(#p5b8107ec7e)" style="fill: #f78c6b"/>
   </g>
   <g id="patch_68">
    <path d="M 215.766375 388.412493 
L 236.908007 388.412493 
L 236.908007 388.412493 
L 215.766375 388.412493 
z
" clip-path="url(#p5b8107ec7e)" style="fill: #f78c6b"/>
   </g>
   <g id="patch_69">
    <path d="M 258.049639 388.412493 
L 279.191272 388.412493 
L 279.191272 230.557971 
L 258.049639 230.557971 
z
" clip-path="url(#p5b8107ec7e)" style="fill: #f78c6b"/>
   </g>
   <g id="patch_70">
    <path d="M 300.332904 388.412493 
L 321.474536 388.412493 
L 321.474536 333.410918 
L 300.332904 333.410918 
z
" clip-path="url(#p5b8107ec7e)" style="fill: #f78c6b"/>
   </g>
   <g id="patch_71">
    <path d="M 342.616169 388.412493 
L 363.757801 388.412493 
L 363.757801 347.711327 
L 342.616169 347.711327 
z
" clip-path="url(#p5b8107ec7e)" style="fill: #f78c6b"/>
   </g>
   <g id="patch_72">
    <path d="M 46.633316 388.412493 
L 67.774948 388.412493 
L 67.774948 388.412493 
L 46.633316 388.412493 
z
" clip-path="url(#p5b8107ec7e)" style="fill: #ffd166"/>
   </g>
   <g id="patch_73">
    <path d="M 88.916581 358.229257 
L 110.058213 358.229257 
L 110.058213 356.486733 
L 88.916581 356.486733 
z
" clip-path="url(#p5b8107ec7e)" style="fill: #ffd166"/>
   </g>
   <g id="patch_74">
    <path d="M 131.199845 377.895686 
L 152.341478 377.895686 
L 152.341478 376.346777 
L 131.199845 376.346777 
z
" clip-path="url(#p5b8107ec7e)" style="fill: #ffd166"/>
   </g>
   <g id="patch_75">
    <path d="M 173.48311 388.412493 
L 194.624742 388.412493 
L 194.624742 388.412493 
L 173.48311 388.412493 
z
" clip-path="url(#p5b8107ec7e)" style="fill: #ffd166"/>
   </g>
   <g id="patch_76">
    <path d="M 215.766375 388.412493 
L 236.908007 388.412493 
L 236.908007 388.412493 
L 215.766375 388.412493 
z
" clip-path="url(#p5b8107ec7e)" style="fill: #ffd166"/>
   </g>
   <g id="patch_77">
    <path d="M 258.049639 230.557971 
L 279.191272 230.557971 
L 279.191272 228.815448 
L 258.049639 228.815448 
z
" clip-path="url(#p5b8107ec7e)" style="fill: #ffd166"/>
   </g>
   <g id="patch_78">
    <path d="M 300.332904 333.410918 
L 321.474536 333.410918 
L 321.474536 331.862008 
L 300.332904 331.862008 
z
" clip-path="url(#p5b8107ec7e)" style="fill: #ffd166"/>
   </g>
   <g id="patch_79">
    <path d="M 342.616169 388.412493 
L 363.757801 388.412493 
L 363.757801 388.412493 
L 342.616169 388.412493 
z
" clip-path="url(#p5b8107ec7e)" style="fill: #ffd166"/>
   </g>
   <g id="patch_80">
    <path d="M 46.633316 385.305744 
L 67.774948 385.305744 
L 67.774948 366.641814 
L 46.633316 366.641814 
z
" clip-path="url(#p5b8107ec7e)" style="fill: #06d6a0"/>
   </g>
   <g id="patch_81">
    <path d="M 88.916581 356.486733 
L 110.058213 356.486733 
L 110.058213 350.789011 
L 88.916581 350.789011 
z
" clip-path="url(#p5b8107ec7e)" style="fill: #06d6a0"/>
   </g>
   <g id="patch_82">
    <path d="M 131.199845 376.346777 
L 152.341478 376.346777 
L 152.341478 355.442457 
L 131.199845 355.442457 
z
" clip-path="url(#p5b8107ec7e)" style="fill: #06d6a0"/>
   </g>
   <g id="patch_83">
    <path d="M 173.48311 380.630056 
L 194.624742 380.630056 
L 194.624742 358.775539 
L 173.48311 358.775539 
z
" clip-path="url(#p5b8107ec7e)" style="fill: #06d6a0"/>
   </g>
   <g id="patch_84">
    <path d="M 215.766375 378.394479 
L 236.908007 378.394479 
L 236.908007 359.73055 
L 215.766375 359.73055 
z
" clip-path="url(#p5b8107ec7e)" style="fill: #06d6a0"/>
   </g>
   <g id="patch_85">
    <path d="M 258.049639 228.815448 
L 279.191272 228.815448 
L 279.191272 223.117725 
L 258.049639 223.117725 
z
" clip-path="url(#p5b8107ec7e)" style="fill: #06d6a0"/>
   </g>
   <g id="patch_86">
    <path d="M 300.332904 331.862008 
L 321.474536 331.862008 
L 321.474536 310.957688 
L 300.332904 310.957688 
z
" clip-path="url(#p5b8107ec7e)" style="fill: #06d6a0"/>
   </g>
   <g id="patch_87">
    <path d="M 342.616169 347.711327 
L 363.757801 347.711327 
L 363.757801 325.856811 
L 342.616169 325.856811 
z
" clip-path="url(#p5b8107ec7e)" style="fill: #06d6a0"/>
   </g>
   <g id="patch_88">
    <path d="M 46.633316 366.641814 
L 67.774948 366.641814 
L 67.774948 366.630645 
L 46.633316 366.630645 
z
" clip-path="url(#p5b8107ec7e)" style="fill: #073b4c"/>
   </g>
   <g id="patch_89">
    <path d="M 88.916581 350.789011 
L 110.058213 350.789011 
L 110.058213 350.78624 
L 88.916581 350.78624 
z
" clip-path="url(#p5b8107ec7e)" style="fill: #073b4c"/>
   </g>
   <g id="patch_90">
    <path d="M 131.199845 355.442457 
L 152.341478 355.442457 
L 152.341478 355.437095 
L 131.199845 355.437095 
z
" clip-path="url(#p5b8107ec7e)" style="fill: #073b4c"/>
   </g>
   <g id="patch_91">
    <path d="M 173.48311 388.412493 
L 194.624742 388.412493 
L 194.624742 388.412493 
L 173.48311 388.412493 
z
" clip-path="url(#p5b8107ec7e)" style="fill: #073b4c"/>
   </g>
   <g id="patch_92">
    <path d="M 215.766375 359.73055 
L 236.908007 359.73055 
L 236.908007 359.71938 
L 215.766375 359.71938 
z
" clip-path="url(#p5b8107ec7e)" style="fill: #073b4c"/>
   </g>
   <g id="patch_93">
    <path d="M 258.049639 223.117725 
L 279.191272 223.117725 
L 279.191272 223.114955 
L 258.049639 223.114955 
z
" clip-path="url(#p5b8107ec7e)" style="fill: #073b4c"/>
   </g>
   <g id="patch_94">
    <path d="M 300.332904 310.957688 
L 321.474536 310.957688 
L 321.474536 310.952327 
L 300.332904 310.952327 
z
" clip-path="url(#p5b8107ec7e)" style="fill: #073b4c"/>
   </g>
   <g id="patch_95">
    <path d="M 342.616169 388.412493 
L 363.757801 388.412493 
L 363.757801 388.412493 
L 342.616169 388.412493 
z
" clip-path="url(#p5b8107ec7e)" style="fill: #073b4c"/>
   </g>
   <g id="patch_96">
    <path d="M 46.633316 388.412493 
L 67.774948 388.412493 
L 67.774948 388.412493 
L 46.633316 388.412493 
z
" clip-path="url(#p5b8107ec7e)" style="fill: #118ab2"/>
   </g>
   <g id="patch_97">
    <path d="M 88.916581 388.412493 
L 110.058213 388.412493 
L 110.058213 388.412493 
L 88.916581 388.412493 
z
" clip-path="url(#p5b8107ec7e)" style="fill: #118ab2"/>
   </g>
   <g id="patch_98">
    <path d="M 131.199845 388.412493 
L 152.341478 388.412493 
L 152.341478 388.412493 
L 131.199845 388.412493 
z
" clip-path="url(#p5b8107ec7e)" style="fill: #118ab2"/>
   </g>
   <g id="patch_99">
    <path d="M 173.48311 388.412493 
L 194.624742 388.412493 
L 194.624742 388.412493 
L 173.48311 388.412493 
z
" clip-path="url(#p5b8107ec7e)" style="fill: #118ab2"/>
   </g>
   <g id="patch_100">
    <path d="M 215.766375 388.412493 
L 236.908007 388.412493 
L 236.908007 388.412493 
L 215.766375 388.412493 
z
" clip-path="url(#p5b8107ec7e)" style="fill: #118ab2"/>
   </g>
   <g id="patch_101">
    <path d="M 258.049639 388.412493 
L 279.191272 388.412493 
L 279.191272 388.412493 
L 258.049639 388.412493 
z
" clip-path="url(#p5b8107ec7e)" style="fill: #118ab2"/>
   </g>
   <g id="patch_102">
    <path d="M 300.332904 388.412493 
L 321.474536 388.412493 
L 321.474536 388.412493 
L 300.332904 388.412493 
z
" clip-path="url(#p5b8107ec7e)" style="fill: #118ab2"/>
   </g>
   <g id="patch_103">
    <path d="M 342.616169 388.412493 
L 363.757801 388.412493 
L 363.757801 388.412493 
L 342.616169 388.412493 
z
" clip-path="url(#p5b8107ec7e)" style="fill: #118ab2"/>
   </g>
   <g id="PathCollection_3">
    <g clip-path="url(#p5b8107ec7e)">
     <use xlink:href="#m7a6ff648b2" x="57.204132" y="366.630645" style="fill: #ffffff; stroke: #000000"/>
     <use xlink:href="#m7a6ff648b2" x="99.487397" y="350.78624" style="fill: #ffffff; stroke: #000000"/>
     <use xlink:href="#m7a6ff648b2" x="141.770662" y="355.437095" style="fill: #ffffff; stroke: #000000"/>
     <use xlink:href="#m7a6ff648b2" x="184.053926" y="358.775539" style="fill: #ffffff; stroke: #000000"/>
     <use xlink:href="#m7a6ff648b2" x="226.337191" y="359.71938" style="fill: #ffffff; stroke: #000000"/>
     <use xlink:href="#m7a6ff648b2" x="268.620455" y="223.114955" style="fill: #ffffff; stroke: #000000"/>
     <use xlink:href="#m7a6ff648b2" x="310.90372" y="310.952327" style="fill: #ffffff; stroke: #000000"/>
     <use xlink:href="#m7a6ff648b2" x="353.186985" y="325.856811" style="fill: #ffffff; stroke: #000000"/>
    </g>
   </g>
   <g id="matplotlib.axis_3">
    <g id="xtick_1">
     <g id="line2d_7">
      <defs>
       <path id="mea2233e760" d="M 0 0 
L 0 3.5 
" style="stroke: #000000; stroke-width: 0.8"/>
      </defs>
      <g>
       <use xlink:href="#mea2233e760" x="57.204132" y="386.564512" style="stroke: #000000; stroke-width: 0.8"/>
      </g>
     </g>
     <g id="text_9">
      <!-- CaC$_\mathdefault{2}$ -->
      <g transform="translate(48.084132 399.564512) scale(0.08 -0.08)">
       <use xlink:href="#Roboto-Regular-43" transform="translate(0 0.921875)"/>
       <use xlink:href="#Roboto-Regular-61" transform="translate(65.087891 0.921875)"/>
       <use xlink:href="#Roboto-Regular-43" transform="translate(119.482422 0.921875)"/>
       <use xlink:href="#Roboto-Regular-32" transform="translate(185.527344 -15.484375) scale(0.7)"/>
      </g>
     </g>
    </g>
    <g id="xtick_2">
     <g id="line2d_8">
      <g>
       <use xlink:href="#mea2233e760" x="99.487397" y="386.564512" style="stroke: #000000; stroke-width: 0.8"/>
      </g>
     </g>
     <g id="text_10">
      <!-- PC -->
      <g transform="translate(94.359897 399.564512) scale(0.08 -0.08)">
       <defs>
        <path id="Roboto-Regular-50" d="M 1128 1781 
L 1128 0 
L 528 0 
L 528 4550 
L 2206 4550 
Q 2953 4550 3376 4169 
Q 3800 3788 3800 3159 
Q 3800 2497 3386 2139 
Q 2972 1781 2200 1781 
L 1128 1781 
z
M 1128 2272 
L 2206 2272 
Q 2688 2272 2944 2498 
Q 3200 2725 3200 3153 
Q 3200 3559 2944 3803 
Q 2688 4047 2241 4056 
L 1128 4056 
L 1128 2272 
z
" transform="scale(0.015625)"/>
       </defs>
       <use xlink:href="#Roboto-Regular-50"/>
       <use xlink:href="#Roboto-Regular-43" x="63.085938"/>
      </g>
     </g>
    </g>
    <g id="xtick_3">
     <g id="line2d_9">
      <g>
       <use xlink:href="#mea2233e760" x="141.770662" y="386.564512" style="stroke: #000000; stroke-width: 0.8"/>
      </g>
     </g>
     <g id="text_11">
      <!-- Thermal -->
      <g transform="translate(127.055662 399.564512) scale(0.08 -0.08)">
       <defs>
        <path id="Roboto-Regular-54" d="M 3672 4056 
L 2209 4056 
L 2209 0 
L 1613 0 
L 1613 4056 
L 153 4056 
L 153 4550 
L 3672 4550 
L 3672 4056 
z
" transform="scale(0.015625)"/>
        <path id="Roboto-Regular-72" d="M 2072 2863 
Q 1941 2884 1788 2884 
Q 1219 2884 1016 2400 
L 1016 0 
L 438 0 
L 438 3381 
L 1000 3381 
L 1009 2991 
Q 1294 3444 1816 3444 
Q 1984 3444 2072 3400 
L 2072 2863 
z
" transform="scale(0.015625)"/>
       </defs>
       <use xlink:href="#Roboto-Regular-54"/>
       <use xlink:href="#Roboto-Regular-68" x="59.667969"/>
       <use xlink:href="#Roboto-Regular-65" x="114.746094"/>
       <use xlink:href="#Roboto-Regular-72" x="167.724609"/>
       <use xlink:href="#Roboto-Regular-6d" x="201.5625"/>
       <use xlink:href="#Roboto-Regular-61" x="289.208984"/>
       <use xlink:href="#Roboto-Regular-6c" x="343.603516"/>
      </g>
      <!-- plasma -->
      <g transform="translate(128.636287 408.389512) scale(0.08 -0.08)">
       <defs>
        <path id="Roboto-Regular-73" d="M 2406 897 
Q 2406 1131 2229 1261 
Q 2053 1391 1614 1484 
Q 1175 1578 917 1709 
Q 659 1841 536 2022 
Q 413 2203 413 2453 
Q 413 2869 764 3156 
Q 1116 3444 1663 3444 
Q 2238 3444 2595 3147 
Q 2953 2850 2953 2388 
L 2372 2388 
Q 2372 2625 2170 2797 
Q 1969 2969 1663 2969 
Q 1347 2969 1169 2831 
Q 991 2694 991 2472 
Q 991 2263 1156 2156 
Q 1322 2050 1755 1953 
Q 2188 1856 2456 1722 
Q 2725 1588 2854 1398 
Q 2984 1209 2984 938 
Q 2984 484 2621 210 
Q 2259 -63 1681 -63 
Q 1275 -63 962 81 
Q 650 225 473 483 
Q 297 741 297 1041 
L 875 1041 
Q 891 750 1108 579 
Q 1325 409 1681 409 
Q 2009 409 2207 542 
Q 2406 675 2406 897 
z
" transform="scale(0.015625)"/>
       </defs>
       <use xlink:href="#Roboto-Regular-70"/>
       <use xlink:href="#Roboto-Regular-6c" x="56.103516"/>
       <use xlink:href="#Roboto-Regular-61" x="80.371094"/>
       <use xlink:href="#Roboto-Regular-73" x="134.765625"/>
       <use xlink:href="#Roboto-Regular-6d" x="186.328125"/>
       <use xlink:href="#Roboto-Regular-61" x="273.974609"/>
      </g>
     </g>
    </g>
    <g id="xtick_4">
     <g id="line2d_10">
      <g>
       <use xlink:href="#mea2233e760" x="184.053926" y="386.564512" style="stroke: #000000; stroke-width: 0.8"/>
      </g>
     </g>
     <g id="text_12">
      <!-- Non-thermal -->
      <g transform="translate(161.975176 399.564512) scale(0.08 -0.08)">
       <defs>
        <path id="Roboto-Regular-4e" d="M 4025 0 
L 3422 0 
L 1131 3506 
L 1131 0 
L 528 0 
L 528 4550 
L 1131 4550 
L 3428 1028 
L 3428 4550 
L 4025 4550 
L 4025 0 
z
" transform="scale(0.015625)"/>
        <path id="Roboto-Regular-6f" d="M 284 1722 
Q 284 2219 479 2616 
Q 675 3013 1023 3228 
Q 1372 3444 1819 3444 
Q 2509 3444 2936 2966 
Q 3363 2488 3363 1694 
L 3363 1653 
Q 3363 1159 3173 767 
Q 2984 375 2632 156 
Q 2281 -63 1825 -63 
Q 1138 -63 711 415 
Q 284 894 284 1681 
L 284 1722 
z
M 866 1653 
Q 866 1091 1127 750 
Q 1388 409 1825 409 
Q 2266 409 2525 754 
Q 2784 1100 2784 1722 
Q 2784 2278 2520 2623 
Q 2256 2969 1819 2969 
Q 1391 2969 1128 2628 
Q 866 2288 866 1653 
z
" transform="scale(0.015625)"/>
       </defs>
       <use xlink:href="#Roboto-Regular-4e"/>
       <use xlink:href="#Roboto-Regular-6f" x="71.289062"/>
       <use xlink:href="#Roboto-Regular-6e" x="128.320312"/>
       <use xlink:href="#Roboto-Regular-2d" x="183.496094"/>
       <use xlink:href="#Roboto-Regular-74" x="211.083984"/>
       <use xlink:href="#Roboto-Regular-68" x="243.75"/>
       <use xlink:href="#Roboto-Regular-65" x="298.828125"/>
       <use xlink:href="#Roboto-Regular-72" x="351.806641"/>
       <use xlink:href="#Roboto-Regular-6d" x="385.644531"/>
       <use xlink:href="#Roboto-Regular-61" x="473.291016"/>
       <use xlink:href="#Roboto-Regular-6c" x="527.685547"/>
      </g>
      <!-- plasma -->
      <g transform="translate(170.919551 408.389512) scale(0.08 -0.08)">
       <use xlink:href="#Roboto-Regular-70"/>
       <use xlink:href="#Roboto-Regular-6c" x="56.103516"/>
       <use xlink:href="#Roboto-Regular-61" x="80.371094"/>
       <use xlink:href="#Roboto-Regular-73" x="134.765625"/>
       <use xlink:href="#Roboto-Regular-6d" x="186.328125"/>
       <use xlink:href="#Roboto-Regular-61" x="273.974609"/>
      </g>
     </g>
    </g>
    <g id="xtick_5">
     <g id="line2d_11">
      <g>
       <use xlink:href="#mea2233e760" x="226.337191" y="386.564512" style="stroke: #000000; stroke-width: 0.8"/>
      </g>
     </g>
     <g id="text_13">
      <!-- CaC$_\mathdefault{2}$ -->
      <g transform="translate(217.217191 399.564512) scale(0.08 -0.08)">
       <use xlink:href="#Roboto-Regular-43" transform="translate(0 0.921875)"/>
       <use xlink:href="#Roboto-Regular-61" transform="translate(65.087891 0.921875)"/>
       <use xlink:href="#Roboto-Regular-43" transform="translate(119.482422 0.921875)"/>
       <use xlink:href="#Roboto-Regular-32" transform="translate(185.527344 -15.484375) scale(0.7)"/>
      </g>
     </g>
    </g>
    <g id="xtick_6">
     <g id="line2d_12">
      <g>
       <use xlink:href="#mea2233e760" x="268.620455" y="386.564512" style="stroke: #000000; stroke-width: 0.8"/>
      </g>
     </g>
     <g id="text_14">
      <!-- PC -->
      <g transform="translate(263.492955 399.564512) scale(0.08 -0.08)">
       <use xlink:href="#Roboto-Regular-50"/>
       <use xlink:href="#Roboto-Regular-43" x="63.085938"/>
      </g>
     </g>
    </g>
    <g id="xtick_7">
     <g id="line2d_13">
      <g>
       <use xlink:href="#mea2233e760" x="310.90372" y="386.564512" style="stroke: #000000; stroke-width: 0.8"/>
      </g>
     </g>
     <g id="text_15">
      <!-- Thermal -->
      <g transform="translate(296.18872 399.564512) scale(0.08 -0.08)">
       <use xlink:href="#Roboto-Regular-54"/>
       <use xlink:href="#Roboto-Regular-68" x="59.667969"/>
       <use xlink:href="#Roboto-Regular-65" x="114.746094"/>
       <use xlink:href="#Roboto-Regular-72" x="167.724609"/>
       <use xlink:href="#Roboto-Regular-6d" x="201.5625"/>
       <use xlink:href="#Roboto-Regular-61" x="289.208984"/>
       <use xlink:href="#Roboto-Regular-6c" x="343.603516"/>
      </g>
      <!-- plasma -->
      <g transform="translate(297.769345 408.389512) scale(0.08 -0.08)">
       <use xlink:href="#Roboto-Regular-70"/>
       <use xlink:href="#Roboto-Regular-6c" x="56.103516"/>
       <use xlink:href="#Roboto-Regular-61" x="80.371094"/>
       <use xlink:href="#Roboto-Regular-73" x="134.765625"/>
       <use xlink:href="#Roboto-Regular-6d" x="186.328125"/>
       <use xlink:href="#Roboto-Regular-61" x="273.974609"/>
      </g>
     </g>
    </g>
    <g id="xtick_8">
     <g id="line2d_14">
      <g>
       <use xlink:href="#mea2233e760" x="353.186985" y="386.564512" style="stroke: #000000; stroke-width: 0.8"/>
      </g>
     </g>
     <g id="text_16">
      <!-- Non-thermal -->
      <g transform="translate(331.108235 399.564512) scale(0.08 -0.08)">
       <use xlink:href="#Roboto-Regular-4e"/>
       <use xlink:href="#Roboto-Regular-6f" x="71.289062"/>
       <use xlink:href="#Roboto-Regular-6e" x="128.320312"/>
       <use xlink:href="#Roboto-Regular-2d" x="183.496094"/>
       <use xlink:href="#Roboto-Regular-74" x="211.083984"/>
       <use xlink:href="#Roboto-Regular-68" x="243.75"/>
       <use xlink:href="#Roboto-Regular-65" x="298.828125"/>
       <use xlink:href="#Roboto-Regular-72" x="351.806641"/>
       <use xlink:href="#Roboto-Regular-6d" x="385.644531"/>
       <use xlink:href="#Roboto-Regular-61" x="473.291016"/>
       <use xlink:href="#Roboto-Regular-6c" x="527.685547"/>
      </g>
      <!-- plasma -->
      <g transform="translate(340.05261 408.389512) scale(0.08 -0.08)">
       <use xlink:href="#Roboto-Regular-70"/>
       <use xlink:href="#Roboto-Regular-6c" x="56.103516"/>
       <use xlink:href="#Roboto-Regular-61" x="80.371094"/>
       <use xlink:href="#Roboto-Regular-73" x="134.765625"/>
       <use xlink:href="#Roboto-Regular-6d" x="186.328125"/>
       <use xlink:href="#Roboto-Regular-61" x="273.974609"/>
      </g>
     </g>
    </g>
   </g>
   <g id="matplotlib.axis_4">
    <g id="ytick_5">
     <g id="line2d_15">
      <g>
       <use xlink:href="#m639e577df0" x="36.0625" y="351.452868" style="stroke: #000000; stroke-width: 0.8"/>
      </g>
     </g>
     <g id="text_17">
      <!-- 2 -->
      <g transform="translate(24.57 354.452868) scale(0.08 -0.08)">
       <use xlink:href="#Roboto-Regular-32"/>
      </g>
     </g>
    </g>
    <g id="ytick_6">
     <g id="line2d_16">
      <g>
       <use xlink:href="#m639e577df0" x="36.0625" y="314.493243" style="stroke: #000000; stroke-width: 0.8"/>
      </g>
     </g>
     <g id="text_18">
      <!-- 4 -->
      <g transform="translate(24.57 317.493243) scale(0.08 -0.08)">
       <defs>
        <path id="Roboto-Regular-34" d="M 2819 1528 
L 3450 1528 
L 3450 1056 
L 2819 1056 
L 2819 0 
L 2238 0 
L 2238 1056 
L 166 1056 
L 166 1397 
L 2203 4550 
L 2819 4550 
L 2819 1528 
z
M 822 1528 
L 2238 1528 
L 2238 3759 
L 2169 3634 
L 822 1528 
z
" transform="scale(0.015625)"/>
       </defs>
       <use xlink:href="#Roboto-Regular-34"/>
      </g>
     </g>
    </g>
    <g id="ytick_7">
     <g id="line2d_17">
      <g>
       <use xlink:href="#m639e577df0" x="36.0625" y="277.533618" style="stroke: #000000; stroke-width: 0.8"/>
      </g>
     </g>
     <g id="text_19">
      <!-- 6 -->
      <g transform="translate(24.57 280.533618) scale(0.08 -0.08)">
       <use xlink:href="#Roboto-Regular-36"/>
      </g>
     </g>
    </g>
    <g id="ytick_8">
     <g id="line2d_18">
      <g>
       <use xlink:href="#m639e577df0" x="36.0625" y="240.573993" style="stroke: #000000; stroke-width: 0.8"/>
      </g>
     </g>
     <g id="text_20">
      <!-- 8 -->
      <g transform="translate(24.57 243.573993) scale(0.08 -0.08)">
       <defs>
        <path id="Roboto-Regular-38" d="M 3138 3363 
Q 3138 3022 2958 2756 
Q 2778 2491 2472 2341 
Q 2828 2188 3036 1894 
Q 3244 1600 3244 1228 
Q 3244 638 2845 287 
Q 2447 -63 1797 -63 
Q 1141 -63 745 289 
Q 350 641 350 1228 
Q 350 1597 551 1894 
Q 753 2191 1109 2344 
Q 806 2494 631 2759 
Q 456 3025 456 3363 
Q 456 3938 825 4275 
Q 1194 4613 1797 4613 
Q 2397 4613 2767 4275 
Q 3138 3938 3138 3363 
z
M 2666 1241 
Q 2666 1622 2423 1862 
Q 2181 2103 1790 2103 
Q 1400 2103 1164 1865 
Q 928 1628 928 1240 
Q 928 853 1158 631 
Q 1388 409 1797 409 
Q 2203 409 2434 632 
Q 2666 856 2666 1241 
z
M 1797 4138 
Q 1456 4138 1245 3927 
Q 1034 3716 1034 3353 
Q 1034 3006 1242 2792 
Q 1450 2578 1797 2578 
Q 2144 2578 2351 2792 
Q 2559 3006 2559 3353 
Q 2559 3700 2343 3919 
Q 2128 4138 1797 4138 
z
" transform="scale(0.015625)"/>
       </defs>
       <use xlink:href="#Roboto-Regular-38"/>
      </g>
     </g>
    </g>
    <g id="text_21">
     <!-- Production costs [USD kg$^\mathdefault{-1}$] -->
     <g transform="translate(18.89 350.193384) rotate(-90) scale(0.08 -0.08)">
      <defs>
       <path id="Roboto-Regular-64" d="M 297 1719 
Q 297 2497 665 2970 
Q 1034 3444 1631 3444 
Q 2225 3444 2572 3038 
L 2572 4800 
L 3150 4800 
L 3150 0 
L 2619 0 
L 2591 363 
Q 2244 -63 1625 -63 
Q 1038 -63 667 418 
Q 297 900 297 1675 
L 297 1719 
z
M 875 1653 
Q 875 1078 1112 753 
Q 1350 428 1769 428 
Q 2319 428 2572 922 
L 2572 2475 
Q 2313 2953 1775 2953 
Q 1350 2953 1112 2625 
Q 875 2297 875 1653 
z
" transform="scale(0.015625)"/>
       <path id="Roboto-Regular-75" d="M 2525 334 
Q 2188 -63 1534 -63 
Q 994 -63 711 251 
Q 428 566 425 1181 
L 425 3381 
L 1003 3381 
L 1003 1197 
Q 1003 428 1628 428 
Q 2291 428 2509 922 
L 2509 3381 
L 3088 3381 
L 3088 0 
L 2538 0 
L 2525 334 
z
" transform="scale(0.015625)"/>
       <path id="Roboto-Regular-55" d="M 3731 4550 
L 3731 1456 
Q 3728 813 3326 403 
Q 2925 -6 2238 -56 
L 2078 -63 
Q 1331 -63 887 340 
Q 444 744 438 1450 
L 438 4550 
L 1031 4550 
L 1031 1469 
Q 1031 975 1303 701 
Q 1575 428 2078 428 
Q 2588 428 2858 700 
Q 3128 972 3128 1466 
L 3128 4550 
L 3731 4550 
z
" transform="scale(0.015625)"/>
       <path id="Roboto-Regular-53" d="M 1869 2028 
Q 1097 2250 745 2573 
Q 394 2897 394 3372 
Q 394 3909 823 4261 
Q 1253 4613 1941 4613 
Q 2409 4613 2776 4431 
Q 3144 4250 3345 3931 
Q 3547 3613 3547 3234 
L 2944 3234 
Q 2944 3647 2681 3883 
Q 2419 4119 1941 4119 
Q 1497 4119 1248 3923 
Q 1000 3728 1000 3381 
Q 1000 3103 1236 2911 
Q 1472 2719 2039 2559 
Q 2606 2400 2926 2208 
Q 3247 2016 3401 1759 
Q 3556 1503 3556 1156 
Q 3556 603 3125 270 
Q 2694 -63 1972 -63 
Q 1503 -63 1097 117 
Q 691 297 470 609 
Q 250 922 250 1319 
L 853 1319 
Q 853 906 1158 667 
Q 1463 428 1972 428 
Q 2447 428 2700 622 
Q 2953 816 2953 1150 
Q 2953 1484 2718 1667 
Q 2484 1850 1869 2028 
z
" transform="scale(0.015625)"/>
       <path id="Roboto-Regular-44" d="M 528 0 
L 528 4550 
L 1813 4550 
Q 2406 4550 2862 4287 
Q 3319 4025 3567 3540 
Q 3816 3056 3819 2428 
L 3819 2138 
Q 3819 1494 3570 1009 
Q 3322 525 2861 265 
Q 2400 6 1788 0 
L 528 0 
z
M 1128 4056 
L 1128 491 
L 1759 491 
Q 2453 491 2839 922 
Q 3225 1353 3225 2150 
L 3225 2416 
Q 3225 3191 2861 3620 
Q 2497 4050 1828 4056 
L 1128 4056 
z
" transform="scale(0.015625)"/>
      </defs>
      <use xlink:href="#Roboto-Regular-50" transform="translate(0 0.7125)"/>
      <use xlink:href="#Roboto-Regular-72" transform="translate(63.085938 0.7125)"/>
      <use xlink:href="#Roboto-Regular-6f" transform="translate(96.923828 0.7125)"/>
      <use xlink:href="#Roboto-Regular-64" transform="translate(153.955078 0.7125)"/>
      <use xlink:href="#Roboto-Regular-75" transform="translate(210.351562 0.7125)"/>
      <use xlink:href="#Roboto-Regular-63" transform="translate(265.478516 0.7125)"/>
      <use xlink:href="#Roboto-Regular-74" transform="translate(317.822266 0.7125)"/>
      <use xlink:href="#Roboto-Regular-69" transform="translate(350.488281 0.7125)"/>
      <use xlink:href="#Roboto-Regular-6f" transform="translate(374.755859 0.7125)"/>
      <use xlink:href="#Roboto-Regular-6e" transform="translate(431.787109 0.7125)"/>
      <use xlink:href="#Roboto-Regular-20" transform="translate(486.962891 0.7125)"/>
      <use xlink:href="#Roboto-Regular-63" transform="translate(511.71875 0.7125)"/>
      <use xlink:href="#Roboto-Regular-6f" transform="translate(564.0625 0.7125)"/>
      <use xlink:href="#Roboto-Regular-73" transform="translate(621.09375 0.7125)"/>
      <use xlink:href="#Roboto-Regular-74" transform="translate(672.65625 0.7125)"/>
      <use xlink:href="#Roboto-Regular-73" transform="translate(705.322266 0.7125)"/>
      <use xlink:href="#Roboto-Regular-20" transform="translate(756.884766 0.7125)"/>
      <use xlink:href="#Roboto-Regular-5b" transform="translate(781.640625 0.7125)"/>
      <use xlink:href="#Roboto-Regular-55" transform="translate(808.154297 0.7125)"/>
      <use xlink:href="#Roboto-Regular-53" transform="translate(872.998047 0.7125)"/>
      <use xlink:href="#Roboto-Regular-44" transform="translate(932.324219 0.7125)"/>
      <use xlink:href="#Roboto-Regular-20" transform="translate(997.900391 0.7125)"/>
      <use xlink:href="#Roboto-Regular-6b" transform="translate(1022.65625 0.7125)"/>
      <use xlink:href="#Roboto-Regular-67" transform="translate(1073.339844 0.7125)"/>
      <use xlink:href="#Roboto-Regular-2212" transform="translate(1130.400391 38.99375) scale(0.7)"/>
      <use xlink:href="#Roboto-Regular-31" transform="translate(1170.390625 38.99375) scale(0.7)"/>
      <use xlink:href="#Roboto-Regular-5d" transform="translate(1212.431641 0.7125)"/>
     </g>
    </g>
   </g>
   <g id="line2d_19">
    <path d="M 36.0625 388.412493 
L 374.328617 388.412493 
" clip-path="url(#p5b8107ec7e)" style="fill: none; stroke: #808080; stroke-width: 0.5; stroke-linecap: square"/>
   </g>
   <g id="line2d_20">
    <path d="M 205.195559 386.564512 
L 205.195559 214.702256 
" clip-path="url(#p5b8107ec7e)" style="fill: none; stroke-dasharray: 1.85,0.8; stroke-dashoffset: 0; stroke: #808080; stroke-width: 0.5"/>
   </g>
   <g id="patch_104">
    <path d="M 36.0625 386.564512 
L 36.0625 214.702256 
" style="fill: none; stroke: #000000; stroke-width: 0.8; stroke-linejoin: miter; stroke-linecap: square"/>
   </g>
   <g id="patch_105">
    <path d="M 374.328617 386.564512 
L 374.328617 214.702256 
" style="fill: none; stroke: #000000; stroke-width: 0.8; stroke-linejoin: miter; stroke-linecap: square"/>
   </g>
   <g id="patch_106">
    <path d="M 36.0625 386.564512 
L 374.328617 386.564512 
" style="fill: none; stroke: #000000; stroke-width: 0.8; stroke-linejoin: miter; stroke-linecap: square"/>
   </g>
   <g id="patch_107">
    <path d="M 36.0625 214.702256 
L 374.328617 214.702256 
" style="fill: none; stroke: #000000; stroke-width: 0.8; stroke-linejoin: miter; stroke-linecap: square"/>
   </g>
   <g id="text_22">
    <!-- b -->
    <g transform="translate(202.380715 208.702256) scale(0.1 -0.1)">
     <defs>
      <path id="Roboto-Bold-62" d="M 3394 1659 
Q 3394 847 3047 392 
Q 2700 -63 2078 -63 
Q 1528 -63 1200 359 
L 1159 0 
L 347 0 
L 347 4800 
L 1250 4800 
L 1250 3078 
Q 1563 3444 2072 3444 
Q 2691 3444 3042 2989 
Q 3394 2534 3394 1709 
L 3394 1659 
z
M 2491 1725 
Q 2491 2238 2328 2473 
Q 2166 2709 1844 2709 
Q 1413 2709 1250 2356 
L 1250 1022 
Q 1416 666 1850 666 
Q 2288 666 2425 1097 
Q 2491 1303 2491 1725 
z
" transform="scale(0.015625)"/>
     </defs>
     <use xlink:href="#Roboto-Bold-62"/>
    </g>
   </g>
   <g id="legend_2"/>
  </g>
  <g id="legend_3">
   <g id="line2d_21">
    <path d="M 17.85588 420.652622 
L 25.85588 420.652622 
L 33.85588 420.652622 
" style="fill: none; stroke: #ffffff; stroke-width: 1.5; stroke-linecap: square"/>
    <defs>
     <path id="mda3e10647d" d="M 0 3.5 
C 0.928211 3.5 1.81853 3.131218 2.474874 2.474874 
C 3.131218 1.81853 3.5 0.928211 3.5 0 
C 3.5 -0.928211 3.131218 -1.81853 2.474874 -2.474874 
C 1.81853 -3.131218 0.928211 -3.5 0 -3.5 
C -0.928211 -3.5 -1.81853 -3.131218 -2.474874 -2.474874 
C -3.131218 -1.81853 -3.5 -0.928211 -3.5 0 
C -3.5 0.928211 -3.131218 1.81853 -2.474874 2.474874 
C -1.81853 3.131218 -0.928211 3.5 0 3.5 
z
" style="stroke: #ffffff"/>
    </defs>
    <g>
     <use xlink:href="#mda3e10647d" x="25.85588" y="420.652622" style="fill: #ef476f; stroke: #ffffff"/>
    </g>
   </g>
   <g id="text_23">
    <!-- Coke or biochar -->
    <g transform="translate(34.65588 423.452622) scale(0.08 -0.08)">
     <defs>
      <path id="Roboto-Regular-62" d="M 3300 1653 
Q 3300 878 2944 407 
Q 2588 -63 1988 -63 
Q 1347 -63 997 391 
L 969 0 
L 438 0 
L 438 4800 
L 1016 4800 
L 1016 3009 
Q 1366 3444 1981 3444 
Q 2597 3444 2948 2978 
Q 3300 2513 3300 1703 
L 3300 1653 
z
M 2722 1719 
Q 2722 2309 2494 2631 
Q 2266 2953 1838 2953 
Q 1266 2953 1016 2422 
L 1016 959 
Q 1281 428 1844 428 
Q 2259 428 2490 750 
Q 2722 1072 2722 1719 
z
" transform="scale(0.015625)"/>
     </defs>
     <use xlink:href="#Roboto-Regular-43"/>
     <use xlink:href="#Roboto-Regular-6f" x="65.087891"/>
     <use xlink:href="#Roboto-Regular-6b" x="122.119141"/>
     <use xlink:href="#Roboto-Regular-65" x="172.802734"/>
     <use xlink:href="#Roboto-Regular-20" x="225.78125"/>
     <use xlink:href="#Roboto-Regular-6f" x="250.537109"/>
     <use xlink:href="#Roboto-Regular-72" x="307.568359"/>
     <use xlink:href="#Roboto-Regular-20" x="341.40625"/>
     <use xlink:href="#Roboto-Regular-62" x="366.162109"/>
     <use xlink:href="#Roboto-Regular-69" x="422.265625"/>
     <use xlink:href="#Roboto-Regular-6f" x="446.533203"/>
     <use xlink:href="#Roboto-Regular-63" x="503.564453"/>
     <use xlink:href="#Roboto-Regular-68" x="555.908203"/>
     <use xlink:href="#Roboto-Regular-61" x="610.986328"/>
     <use xlink:href="#Roboto-Regular-72" x="665.380859"/>
    </g>
   </g>
   <g id="line2d_22">
    <path d="M 17.85588 432.277622 
L 25.85588 432.277622 
L 33.85588 432.277622 
" style="fill: none; stroke: #ffffff; stroke-width: 1.5; stroke-linecap: square"/>
    <defs>
     <path id="m9188483f3d" d="M 0 3.5 
C 0.928211 3.5 1.81853 3.131218 2.474874 2.474874 
C 3.131218 1.81853 3.5 0.928211 3.5 0 
C 3.5 -0.928211 3.131218 -1.81853 2.474874 -2.474874 
C 1.81853 -3.131218 0.928211 -3.5 0 -3.5 
C -0.928211 -3.5 -1.81853 -3.131218 -2.474874 -2.474874 
C -3.131218 -1.81853 -3.5 -0.928211 -3.5 0 
C -3.5 0.928211 -3.131218 1.81853 -2.474874 2.474874 
C -1.81853 3.131218 -0.928211 3.5 0 3.5 
z
" style="stroke: #ffffff"/>
    </defs>
    <g>
     <use xlink:href="#m9188483f3d" x="25.85588" y="432.277622" style="fill: #f78c6b; stroke: #ffffff"/>
    </g>
   </g>
   <g id="text_24">
    <!-- Methane or biomethane -->
    <g transform="translate(34.65588 435.077622) scale(0.08 -0.08)">
     <defs>
      <path id="Roboto-Regular-4d" d="M 1303 4550 
L 2791 838 
L 4278 4550 
L 5056 4550 
L 5056 0 
L 4456 0 
L 4456 1772 
L 4513 3684 
L 3019 0 
L 2559 0 
L 1069 3675 
L 1128 1772 
L 1128 0 
L 528 0 
L 528 4550 
L 1303 4550 
z
" transform="scale(0.015625)"/>
     </defs>
     <use xlink:href="#Roboto-Regular-4d"/>
     <use xlink:href="#Roboto-Regular-65" x="87.304688"/>
     <use xlink:href="#Roboto-Regular-74" x="140.283203"/>
     <use xlink:href="#Roboto-Regular-68" x="172.949219"/>
     <use xlink:href="#Roboto-Regular-61" x="228.027344"/>
     <use xlink:href="#Roboto-Regular-6e" x="282.421875"/>
     <use xlink:href="#Roboto-Regular-65" x="337.597656"/>
     <use xlink:href="#Roboto-Regular-20" x="390.576172"/>
     <use xlink:href="#Roboto-Regular-6f" x="415.332031"/>
     <use xlink:href="#Roboto-Regular-72" x="472.363281"/>
     <use xlink:href="#Roboto-Regular-20" x="506.201172"/>
     <use xlink:href="#Roboto-Regular-62" x="530.957031"/>
     <use xlink:href="#Roboto-Regular-69" x="587.060547"/>
     <use xlink:href="#Roboto-Regular-6f" x="611.328125"/>
     <use xlink:href="#Roboto-Regular-6d" x="668.359375"/>
     <use xlink:href="#Roboto-Regular-65" x="756.005859"/>
     <use xlink:href="#Roboto-Regular-74" x="808.984375"/>
     <use xlink:href="#Roboto-Regular-68" x="841.650391"/>
     <use xlink:href="#Roboto-Regular-61" x="896.728516"/>
     <use xlink:href="#Roboto-Regular-6e" x="951.123047"/>
     <use xlink:href="#Roboto-Regular-65" x="1006.298828"/>
    </g>
   </g>
   <g id="line2d_23">
    <path d="M 135.39963 420.652622 
L 143.39963 420.652622 
L 151.39963 420.652622 
" style="fill: none; stroke: #ffffff; stroke-width: 1.5; stroke-linecap: square"/>
    <defs>
     <path id="m1efe3a8298" d="M 0 3.5 
C 0.928211 3.5 1.81853 3.131218 2.474874 2.474874 
C 3.131218 1.81853 3.5 0.928211 3.5 0 
C 3.5 -0.928211 3.131218 -1.81853 2.474874 -2.474874 
C 1.81853 -3.131218 0.928211 -3.5 0 -3.5 
C -0.928211 -3.5 -1.81853 -3.131218 -2.474874 -2.474874 
C -3.131218 -1.81853 -3.5 -0.928211 -3.5 0 
C -3.5 0.928211 -3.131218 1.81853 -2.474874 2.474874 
C -1.81853 3.131218 -0.928211 3.5 0 3.5 
z
" style="stroke: #ffffff"/>
    </defs>
    <g>
     <use xlink:href="#m1efe3a8298" x="143.39963" y="420.652622" style="fill: #ffd166; stroke: #ffffff"/>
    </g>
   </g>
   <g id="text_25">
    <!-- Heating -->
    <g transform="translate(152.19963 423.452622) scale(0.08 -0.08)">
     <defs>
      <path id="Roboto-Regular-48" d="M 4025 0 
L 3422 0 
L 3422 2103 
L 1128 2103 
L 1128 0 
L 528 0 
L 528 4550 
L 1128 4550 
L 1128 2594 
L 3422 2594 
L 3422 4550 
L 4025 4550 
L 4025 0 
z
" transform="scale(0.015625)"/>
     </defs>
     <use xlink:href="#Roboto-Regular-48"/>
     <use xlink:href="#Roboto-Regular-65" x="71.289062"/>
     <use xlink:href="#Roboto-Regular-61" x="124.267578"/>
     <use xlink:href="#Roboto-Regular-74" x="178.662109"/>
     <use xlink:href="#Roboto-Regular-69" x="211.328125"/>
     <use xlink:href="#Roboto-Regular-6e" x="235.595703"/>
     <use xlink:href="#Roboto-Regular-67" x="290.771484"/>
    </g>
   </g>
   <g id="line2d_24">
    <path d="M 135.39963 432.316372 
L 143.39963 432.316372 
L 151.39963 432.316372 
" style="fill: none; stroke: #ffffff; stroke-width: 1.5; stroke-linecap: square"/>
    <defs>
     <path id="m8cc2fcc540" d="M 0 3.5 
C 0.928211 3.5 1.81853 3.131218 2.474874 2.474874 
C 3.131218 1.81853 3.5 0.928211 3.5 0 
C 3.5 -0.928211 3.131218 -1.81853 2.474874 -2.474874 
C 1.81853 -3.131218 0.928211 -3.5 0 -3.5 
C -0.928211 -3.5 -1.81853 -3.131218 -2.474874 -2.474874 
C -3.131218 -1.81853 -3.5 -0.928211 -3.5 0 
C -3.5 0.928211 -3.131218 1.81853 -2.474874 2.474874 
C -1.81853 3.131218 -0.928211 3.5 0 3.5 
z
" style="stroke: #ffffff"/>
    </defs>
    <g>
     <use xlink:href="#m8cc2fcc540" x="143.39963" y="432.316372" style="fill: #06d6a0; stroke: #ffffff"/>
    </g>
   </g>
   <g id="text_26">
    <!-- Electricity -->
    <g transform="translate(152.19963 435.116372) scale(0.08 -0.08)">
     <defs>
      <path id="Roboto-Regular-45" d="M 3100 2103 
L 1128 2103 
L 1128 491 
L 3419 491 
L 3419 0 
L 528 0 
L 528 4550 
L 3388 4550 
L 3388 4056 
L 1128 4056 
L 1128 2594 
L 3100 2594 
L 3100 2103 
z
" transform="scale(0.015625)"/>
      <path id="Roboto-Regular-79" d="M 1544 847 
L 2331 3381 
L 2950 3381 
L 1591 -522 
Q 1275 -1366 588 -1366 
L 478 -1356 
L 263 -1316 
L 263 -847 
L 419 -859 
Q 713 -859 877 -740 
Q 1041 -622 1147 -306 
L 1275 38 
L 69 3381 
L 700 3381 
L 1544 847 
z
" transform="scale(0.015625)"/>
     </defs>
     <use xlink:href="#Roboto-Regular-45"/>
     <use xlink:href="#Roboto-Regular-6c" x="56.835938"/>
     <use xlink:href="#Roboto-Regular-65" x="81.103516"/>
     <use xlink:href="#Roboto-Regular-63" x="134.082031"/>
     <use xlink:href="#Roboto-Regular-74" x="186.425781"/>
     <use xlink:href="#Roboto-Regular-72" x="219.091797"/>
     <use xlink:href="#Roboto-Regular-69" x="252.929688"/>
     <use xlink:href="#Roboto-Regular-63" x="277.197266"/>
     <use xlink:href="#Roboto-Regular-69" x="329.541016"/>
     <use xlink:href="#Roboto-Regular-74" x="353.808594"/>
     <use xlink:href="#Roboto-Regular-79" x="386.474609"/>
    </g>
   </g>
   <g id="line2d_25">
    <path d="M 202.90463 420.652622 
L 210.90463 420.652622 
L 218.90463 420.652622 
" style="fill: none; stroke: #ffffff; stroke-width: 1.5; stroke-linecap: square"/>
    <defs>
     <path id="m08c3e8b570" d="M 0 3.5 
C 0.928211 3.5 1.81853 3.131218 2.474874 2.474874 
C 3.131218 1.81853 3.5 0.928211 3.5 0 
C 3.5 -0.928211 3.131218 -1.81853 2.474874 -2.474874 
C 1.81853 -3.131218 0.928211 -3.5 0 -3.5 
C -0.928211 -3.5 -1.81853 -3.131218 -2.474874 -2.474874 
C -3.131218 -1.81853 -3.5 -0.928211 -3.5 0 
C -3.5 0.928211 -3.131218 1.81853 -2.474874 2.474874 
C -1.81853 3.131218 -0.928211 3.5 0 3.5 
z
" style="stroke: #ffffff"/>
    </defs>
    <g>
     <use xlink:href="#m08c3e8b570" x="210.90463" y="420.652622" style="fill: #073b4c; stroke: #ffffff"/>
    </g>
   </g>
   <g id="text_27">
    <!-- Other utilities -->
    <g transform="translate(219.70463 423.452622) scale(0.08 -0.08)">
     <use xlink:href="#Roboto-Regular-4f"/>
     <use xlink:href="#Roboto-Regular-74" x="68.75"/>
     <use xlink:href="#Roboto-Regular-68" x="101.416016"/>
     <use xlink:href="#Roboto-Regular-65" x="156.494141"/>
     <use xlink:href="#Roboto-Regular-72" x="209.472656"/>
     <use xlink:href="#Roboto-Regular-20" x="243.310547"/>
     <use xlink:href="#Roboto-Regular-75" x="268.066406"/>
     <use xlink:href="#Roboto-Regular-74" x="323.193359"/>
     <use xlink:href="#Roboto-Regular-69" x="355.859375"/>
     <use xlink:href="#Roboto-Regular-6c" x="380.126953"/>
     <use xlink:href="#Roboto-Regular-69" x="404.394531"/>
     <use xlink:href="#Roboto-Regular-74" x="428.662109"/>
     <use xlink:href="#Roboto-Regular-69" x="461.328125"/>
     <use xlink:href="#Roboto-Regular-65" x="485.595703"/>
     <use xlink:href="#Roboto-Regular-73" x="538.574219"/>
    </g>
   </g>
   <g id="line2d_26">
    <path d="M 202.90463 432.277622 
L 210.90463 432.277622 
L 218.90463 432.277622 
" style="fill: none; stroke: #ffffff; stroke-width: 1.5; stroke-linecap: square"/>
    <defs>
     <path id="m9d21e4f9ac" d="M 0 3.5 
C 0.928211 3.5 1.81853 3.131218 2.474874 2.474874 
C 3.131218 1.81853 3.5 0.928211 3.5 0 
C 3.5 -0.928211 3.131218 -1.81853 2.474874 -2.474874 
C 1.81853 -3.131218 0.928211 -3.5 0 -3.5 
C -0.928211 -3.5 -1.81853 -3.131218 -2.474874 -2.474874 
C -3.131218 -1.81853 -3.5 -0.928211 -3.5 0 
C -3.5 0.928211 -3.131218 1.81853 -2.474874 2.474874 
C -1.81853 3.131218 -0.928211 3.5 0 3.5 
z
" style="stroke: #ffffff"/>
    </defs>
    <g>
     <use xlink:href="#m9d21e4f9ac" x="210.90463" y="432.277622" style="fill: #118ab2; stroke: #ffffff"/>
    </g>
   </g>
   <g id="text_28">
    <!-- Direct emissions -->
    <g transform="translate(219.70463 435.077622) scale(0.08 -0.08)">
     <use xlink:href="#Roboto-Regular-44"/>
     <use xlink:href="#Roboto-Regular-69" x="65.576172"/>
     <use xlink:href="#Roboto-Regular-72" x="89.84375"/>
     <use xlink:href="#Roboto-Regular-65" x="123.681641"/>
     <use xlink:href="#Roboto-Regular-63" x="176.660156"/>
     <use xlink:href="#Roboto-Regular-74" x="229.003906"/>
     <use xlink:href="#Roboto-Regular-20" x="261.669922"/>
     <use xlink:href="#Roboto-Regular-65" x="286.425781"/>
     <use xlink:href="#Roboto-Regular-6d" x="339.404297"/>
     <use xlink:href="#Roboto-Regular-69" x="427.050781"/>
     <use xlink:href="#Roboto-Regular-73" x="451.318359"/>
     <use xlink:href="#Roboto-Regular-73" x="502.880859"/>
     <use xlink:href="#Roboto-Regular-69" x="554.443359"/>
     <use xlink:href="#Roboto-Regular-6f" x="578.710938"/>
     <use xlink:href="#Roboto-Regular-6e" x="635.742188"/>
     <use xlink:href="#Roboto-Regular-73" x="690.917969"/>
    </g>
   </g>
   <g id="line2d_27">
    <path d="M 295.10338 420.652622 
L 303.10338 420.652622 
L 311.10338 420.652622 
" style="fill: none"/>
    <defs>
     <path id="me7afd96d83" d="M 0 2.5 
C 0.663008 2.5 1.29895 2.236584 1.767767 1.767767 
C 2.236584 1.29895 2.5 0.663008 2.5 0 
C 2.5 -0.663008 2.236584 -1.29895 1.767767 -1.767767 
C 1.29895 -2.236584 0.663008 -2.5 0 -2.5 
C -0.663008 -2.5 -1.29895 -2.236584 -1.767767 -1.767767 
C -2.236584 -1.29895 -2.5 -0.663008 -2.5 0 
C -2.5 0.663008 -2.236584 1.29895 -1.767767 1.767767 
C -1.29895 2.236584 -0.663008 2.5 0 2.5 
z
" style="stroke: #000000"/>
    </defs>
    <g>
     <use xlink:href="#me7afd96d83" x="303.10338" y="420.652622" style="fill: #ffffff; stroke: #000000"/>
    </g>
   </g>
   <g id="text_29">
    <!-- Current impact -->
    <g transform="translate(311.90338 423.452622) scale(0.08 -0.08)">
     <use xlink:href="#Roboto-Regular-43"/>
     <use xlink:href="#Roboto-Regular-75" x="65.087891"/>
     <use xlink:href="#Roboto-Regular-72" x="120.214844"/>
     <use xlink:href="#Roboto-Regular-72" x="154.052734"/>
     <use xlink:href="#Roboto-Regular-65" x="187.890625"/>
     <use xlink:href="#Roboto-Regular-6e" x="240.869141"/>
     <use xlink:href="#Roboto-Regular-74" x="296.044922"/>
     <use xlink:href="#Roboto-Regular-20" x="328.710938"/>
     <use xlink:href="#Roboto-Regular-69" x="353.466797"/>
     <use xlink:href="#Roboto-Regular-6d" x="377.734375"/>
     <use xlink:href="#Roboto-Regular-70" x="465.380859"/>
     <use xlink:href="#Roboto-Regular-61" x="521.484375"/>
     <use xlink:href="#Roboto-Regular-63" x="575.878906"/>
     <use xlink:href="#Roboto-Regular-74" x="628.222656"/>
    </g>
   </g>
   <g id="line2d_28">
    <path d="M 295.10338 432.277622 
L 303.10338 432.277622 
L 311.10338 432.277622 
" style="fill: none"/>
    <defs>
     <path id="mb12049e313" d="M 0 3.535534 
L 3.535534 0 
L 0 -3.535534 
L -3.535534 0 
z
" style="stroke: #ffffff; stroke-linejoin: miter"/>
    </defs>
    <g>
     <use xlink:href="#mb12049e313" x="303.10338" y="432.277622" style="fill: #8763c9; stroke: #ffffff; stroke-linejoin: miter"/>
    </g>
   </g>
   <g id="text_30">
    <!-- Future impact -->
    <g transform="translate(311.90338 435.077622) scale(0.08 -0.08)">
     <defs>
      <path id="Roboto-Regular-46" d="M 3038 2009 
L 1128 2009 
L 1128 0 
L 528 0 
L 528 4550 
L 3347 4550 
L 3347 4056 
L 1128 4056 
L 1128 2500 
L 3038 2500 
L 3038 2009 
z
" transform="scale(0.015625)"/>
     </defs>
     <use xlink:href="#Roboto-Regular-46"/>
     <use xlink:href="#Roboto-Regular-75" x="55.273438"/>
     <use xlink:href="#Roboto-Regular-74" x="110.400391"/>
     <use xlink:href="#Roboto-Regular-75" x="143.066406"/>
     <use xlink:href="#Roboto-Regular-72" x="198.193359"/>
     <use xlink:href="#Roboto-Regular-65" x="232.03125"/>
     <use xlink:href="#Roboto-Regular-20" x="285.009766"/>
     <use xlink:href="#Roboto-Regular-69" x="309.765625"/>
     <use xlink:href="#Roboto-Regular-6d" x="334.033203"/>
     <use xlink:href="#Roboto-Regular-70" x="421.679688"/>
     <use xlink:href="#Roboto-Regular-61" x="477.783203"/>
     <use xlink:href="#Roboto-Regular-63" x="532.177734"/>
     <use xlink:href="#Roboto-Regular-74" x="584.521484"/>
    </g>
   </g>
  </g>
 </g>
 <defs>
  <clipPath id="p106ef89c25">
   <rect x="36.0625" y="20.7" width="338.266117" height="171.862256"/>
  </clipPath>
  <clipPath id="p5b8107ec7e">
   <rect x="36.0625" y="214.702256" width="338.266117" height="171.862256"/>
  </clipPath>
 </defs>
</svg>
