<?xml version="1.0" encoding="UTF-8"?>
<svg xmlns="http://www.w3.org/2000/svg" version="1.1" xmlns:inkscape="http://www.inkscape.org/namespaces/inkscape" xmlns:sodipodi="http://sodipodi.sourceforge.net/DTD/sodipodi-0.dtd" xmlns:svg="http://www.w3.org/2000/svg" xmlns:xlink="http://www.w3.org/1999/xlink" viewBox="0 0 255.1 141.7">
  <!-- Generator: Adobe Illustrator 29.1.0, SVG Export Plug-In . SVG Version: 2.1.0 Build 142)  -->
  <defs>
    <style>
      .st0, .st1, .st2, .st3, .st4, .st5, .st6, .st7, .st8, .st9 {
        fill: none;
      }

      .st0, .st1, .st3, .st4, .st5, .st6, .st10, .st11, .st7, .st8, .st9, .st12 {
        stroke-linecap: square;
      }

      .st0, .st4, .st5, .st10, .st11, .st7, .st12 {
        stroke: #000;
      }

      .st0, .st5, .st10, .st11, .st12 {
        stroke-miterlimit: 2.8;
      }

      .st0, .st10, .st11 {
        stroke-width: .3px;
      }

      .st1 {
        stroke: #19996b;
      }

      .st1, .st3, .st6, .st7, .st8, .st9 {
        stroke-miterlimit: 1;
        stroke-width: .6px;
      }

      .st13, .st14, .st15, .st16 {
        fill: #008e5b;
      }

      .st13, .st17, .st18, .st15, .st19, .st20 {
        isolation: isolate;
      }

      .st13, .st21 {
        font-family: Roboto-Bold, Roboto;
        font-size: 7px;
        font-weight: 700;
      }

      .st17, .st21, .st22, .st11, .st23, .st24 {
        fill: #4c4c4c;
      }

      .st3, .st6 {
        stroke: #008e5b;
      }

      .st3, .st9 {
        opacity: .9;
      }

      .st25 {
        fill: #008f5c;
      }

      .st25, .st26, .st16, .st27, .st24 {
        fill-rule: evenodd;
      }

      .st4 {
        stroke-linejoin: round;
        stroke-width: .5px;
      }

      .st5 {
        stroke-dasharray: .6 1.1;
        stroke-width: .6px;
      }

      .st10, .st12 {
        fill: #fff;
      }

      .st26, .st19, .st28 {
        fill: #19996b;
      }

      .st23, .st15, .st19, .st20 {
        font-family: Roboto-Regular, Roboto;
        font-size: 6px;
      }

      .st29, .st20 {
        opacity: .9;
      }

      .st7 {
        opacity: .7;
      }

      .st8 {
        stroke: #4c4c4c;
      }

      .st9 {
        stroke: #008f5c;
      }

      .st12 {
        stroke-width: .3px;
      }
    </style>
  </defs>
  <g id="svg1" inkscape:export-filename="table_of_contents_graphic_acetylene.tiff">
    <sodipodi:namedview id="namedview1" bordercolor="#000000" borderopacity="0.25" inkscape:current-layer="svg1" inkscape:cx="179.23238" inkscape:cy="95.590605" inkscape:deskcolor="#d1d1d1" inkscape:document-units="mm" inkscape:pagecheckerboard="0" inkscape:pageopacity="0.0" inkscape:showpageshadow="2" inkscape:window-height="1137" inkscape:window-maximized="1" inkscape:window-width="1920" inkscape:window-x="-8" inkscape:window-y="234" inkscape:zoom="2.7617777" pagecolor="#ffffff" showgrid="false" showguides="false"/>
    <g id="_x3C_defs">
      <inkscape:perspective id="perspective2452" inkscape:persp3d-origin="300 : 328.58799 : 1" inkscape:vp_x="-50 : 528.58799 : 1" inkscape:vp_y="0 : 999.99998 : 0" inkscape:vp_z="700 : 528.58799 : 1" sodipodi:type="inkscape:persp3d"/>
    </g>
    <g id="layer2" inkscape:groupmode="layer" inkscape:label="Layer 2">
      <rect id="rect50250" class="st12" x=".1" y=".1" width="254.8" height="141.4"/>
    </g>
    <g id="g24132">
      <circle id="path1" class="st4" cx="129.1" cy="70.9" r="32.3"/>
      <image id="image12746" class="st18" width="717" height="348" transform="translate(96.6 52.9) scale(0)" xlink:href="table_of_contents_graphic_acetylene_v2-1.png"/>
    </g>
    <path id="path37131" class="st5" d="M.1,70.9h95.7" sodipodi:nodetypes="cc"/>
    <g class="st18">
      <text class="st21" transform="translate(105 6.8)"><tspan x="0" y="0">Fossil acetylene </tspan></text>
    </g>
    <g class="st18">
      <text class="st23" transform="translate(43.2 36.9)"><tspan x="0" y="0">Natural</tspan></text>
    </g>
    <g class="st18">
      <text class="st23" transform="translate(48.1 42.9)"><tspan x="0" y="0">gas</tspan></text>
    </g>
    <g class="st18">
      <text class="st23" transform="translate(17.1 36.9)"><tspan x="0" y="0">Oil</tspan></text>
    </g>
    <text class="st15" transform="translate(10.5 133)"><tspan x="0" y="0">Biochar</tspan></text>
    <text class="st15" transform="translate(35.3 133)"><tspan x="0" y="0">Biomethane</tspan></text>
    <text class="st15" transform="translate(71.6 133)"><tspan x="0" y="0">Plastics</tspan></text>
    <text class="st19" transform="translate(194.5 40.8)"><tspan x="0" y="0">−150%</tspan></text>
    <text class="st19" transform="translate(196.3 86.5)"><tspan x="0" y="0">+30%</tspan></text>
    <g class="st18">
      <text class="st23" transform="translate(76.3 36.9)"><tspan x="0" y="0">Coal</tspan></text>
    </g>
    <g class="st18">
      <text class="st23" transform="translate(43.2 53.5)"><tspan x="0" y="0">Electricity</tspan></text>
    </g>
    <text class="st15" transform="translate(48.5 92.6)"><tspan x="0" y="0">electricity</tspan></text>
    <text class="st15" transform="translate(43.2 83.5)"><tspan x="0" y="0">Decarbonized</tspan></text>
    <text class="st13" transform="translate(105 138.7)"><tspan x="0" y="0">Green acetylene</tspan></text>
    <g id="g12">
      <g id="_x32_2_Oil_Mining">
        <g id="g1">
          <path id="path1-07" class="st22" d="M30.3,30.2h-1.4v-4.3c0-.4-.3-.8-.7-.8h-.3v-6.6c.5.1.9-.2,1.1-.7.1-.5-.2-1-.7-1.2l-12.9-3.1v-1.1c0-.3-.2-.5-.4-.7l-1.6-.7c-.4-.2-.8,0-.9.5-.9,4.9.8,7.4,1.8,8.3v6.7h-.4c-.4,0-.7.3-.7.7v2.9h-2.2c-.2,0-.3.1-.3.3s.1.3.3.3h19.2c.2,0,.3-.1.3-.3s-.1-.3-.3-.3ZM15.5,14.2l12.7,3.1c.2,0,.3.2.2.4,0,.2-.2.3-.4.2l-12.6-3.1v-.7ZM15.5,30.2h-1.6v-2.9s0,0,0,0h1.5s0,0,0,0v2.9ZM18.5,30.2v-1.5c.1,0,4,1.5,4,1.5h-4ZM18.7,28v-.3s3.6-2.1,3.6-2.1l.3,4-3.9-1.5ZM21.9,19.7l.2,3.6-3.1-1.5v-.8c0,0,2.8-1.3,2.8-1.3ZM19.2,20.3v-1.4h2.7c0,.1-2.7,1.4-2.7,1.4ZM22.2,24.1v.7c0,0-3.5,2.1-3.5,2.1l.3-4.4,3.2,1.5ZM25.2,25.9v4.3h-2l-.8-11.6c0-.2-.1-.3-.3-.3h-3.1c-.2,0-.3.1-.3.3,0,1.4-.7,9.7-.8,11.6h-1.9v-2.9c0-.4-.3-.7-.7-.7h-.5v-6.2s0,0,0,0c0,0,.2,0,.3,0,0,0,.1-.2.1-.3v-4.7l10.7,2.6v7h-.3c-.4,0-.7.3-.7.8ZM28.3,30.2h-2.5v-4.3c0,0,0-.1,0-.1h2.3c0,0,0,0,0,.1v4.3Z"/>
        </g>
      </g>
    </g>
    <path id="path1-8" class="st17" d="M62.6,30.3h-.3v-7.4c0-.8-.7-1.5-1.5-1.5h-1.7v-1.2c0-1.1-1-2.1-2.1-2.1h-2.3c-.1-.4-.5-.8-1-.8h-.3c0-.4-.2-.7-.5-.8.2-.3.3-.7.4-1.1,0-.9-.2-1.7-.5-2.1-.1-.2-.3-.3-.4-.4,0,.2,0,.4,0,.6,0,.2-.2.4-.4.5t0,0h0c.3-.7,0-1.4-.3-2-.2-.4-.5-.7-1-.8,0,0-.2,0-.3,0t0,0c.1.2.3.3.4.5.3.7.2,1.6-.4,2,0,0,0,0,0,0,0,0,0,0,0,0,0-.1,0-.2,0-.3,0-.3-.4-.5-.6-.7h0c0,.2,0,.4,0,.6,0,.3,0,.7-.3.9-.4.7-1,1.2-.8,2.1,0,.2.1.4.2.6-.2.2-.3.4-.3.6h0s-.3,0-.3,0c-.6,0-1,.4-1,1s.4,1,1,1h.2c-.1.7-1.7,8.6-1.8,9.2h-1c-.7,0-1.3.6-1.3,1.2v.4h-.7c-.2,0-.3.2-.3.3s.2.3.3.3h19.2c.2,0,.3-.2.3-.3s-.1-.3-.3-.3h0ZM44.7,29.8c0-.3.3-.6.6-.6h11c.4,0,.6.3.6.6v.4h-12.2v-.4ZM48.7,19.6l1.5.9h0s-1.9,1.3-1.9,1.3l.4-2.2ZM47.6,18.4c0-.2.2-.4.4-.4h5.7c.2,0,.4.2.4.4s-.2.4-.4.4h-5.7c-.2,0-.4-.2-.4-.4ZM52,19.4l-.6.4v-.4h.6ZM50.2,19.8l-.6-.4h.6v.4ZM50.2,23.3l-1.7-.8,1.7-1.1v2ZM51.4,21.3l1.7,1.1-1.7.8v-2ZM50.2,26.6l-2.2-.9,2.2-1.1v2ZM51.4,24.5l2.2,1.1-2.2.9v-2ZM50.2,28.6h-2.1l2.1-.9v.9ZM51.4,27.8l2.1.9h-2.1v-.9ZM51.6,27.2l2.5-1.1.4,2.3-3-1.2ZM51.5,23.9l2-1,.4,2.2-2.4-1.2ZM51.4,20.6l1.5-1,.4,2.2-1.9-1.2ZM47.6,25.1l.4-2.2,2,1-2.4,1.2ZM47.4,26.1l2.5,1.1-3,1.3.5-2.3ZM60.7,22c.5,0,.9.4.9.9v7.4h-2.6v-8.3h1.7ZM58.4,20.2v10.1h-.9v-.4c0-.7-.6-1.2-1.3-1.2h-1c-.1-.6-1.4-6.9-1.8-9.2h.2c.4,0,.8-.3.9-.6h2.4c.8,0,1.5.7,1.5,1.4ZM49.2,15.6c0-.2.2-.4.3-.6,0,0,.1-.1.2-.2,0,.3,0,.6.4.7,0,0,0-.1,0-.2,0-.3,0-.6.2-.9.1-.3.4-.5.6-.7,0,0,.1,0,.2,0,0,0,0,0,0,0,0,0,0,0,0,0-.4.5-.3,1.2,0,1.4,0,0,0,0,.1,0h0c0-.2,0-.3,0-.4,0-.1.2-.2.3-.3,0,0,0,.2,0,.3,0,.3,0,.5.2.8.1.2.3.3.4.5,0,0,0,.2,0,.3h-.4c0-.7-.5-1.1-1.1-1.1s-1.1.5-1.1,1h0c0,0-.5,0-.5,0,0-.3,0-.6,0-.8h0Z"/>
    <g id="g25591">
      <g id="g25587">
        <path id="path25563" class="st22" d="M89.4,28.4h-.7v-2.5h-12.8v2.5h-.7v-2.5c0-.2,0-.4.2-.5.1-.1.3-.2.5-.2h12.8c.2,0,.4,0,.5.2.1.1.2.3.2.5v2.5Z"/>
        <path id="path25565" class="st22" d="M86.2,30.2c-1,0-1.8-.8-1.8-1.8s.8-1.8,1.8-1.8,1.8.8,1.8,1.8-.8,1.8-1.8,1.8ZM86.2,27.3c-.6,0-1.1.5-1.1,1.1s.5,1.1,1.1,1.1,1.1-.5,1.1-1.1-.5-1.1-1.1-1.1Z"/>
        <path id="path25567" class="st22" d="M78.4,30.2c-1,0-1.8-.8-1.8-1.8s.8-1.8,1.8-1.8,1.8.8,1.8,1.8-.8,1.8-1.8,1.8ZM78.4,27.3c-.6,0-1.1.5-1.1,1.1s.5,1.1,1.1,1.1,1.1-.5,1.1-1.1-.5-1.1-1.1-1.1Z"/>
        <path id="path25569" class="st22" d="M90.1,27.3h.7v2.1h-.7v-2.1Z"/>
        <path id="path25571" class="st22" d="M87.6,28h2.8v.7h-2.8v-.7Z"/>
        <path id="path25573" class="st22" d="M73.8,27.3h.7v2.1h-.7v-2.1Z"/>
        <path id="path25575" class="st22" d="M74.2,28h2.8v.7h-2.8v-.7Z"/>
        <path id="path25577" class="st22" d="M73.8,30.2h17v.7h-17v-.7Z"/>
        <path id="path25579" class="st22" d="M86.2,28.7h-2.7l-.4-1.1h-1.6l-.4,1.1h-2.7v-.7h2.2l.4-1.1h2.6l.4,1.1h2.2v.7Z"/>
        <path id="path25581" class="st22" d="M74.5,20l.7-.2,1.4,5.7-.7.2-1.4-5.7Z"/>
        <path id="path25583" class="st22" d="M88,25.4l1.4-5.7.7.2-1.4,5.7-.7-.2Z"/>
        <path id="path25585" class="st22" d="M90.1,20.2h-13.1v-.7h13.1v-.7h-15.6v.7h1.8v.7h-1.8c-.2,0-.4,0-.5-.2-.1-.1-.2-.3-.2-.5v-.7c0-.2,0-.4.2-.5.1-.1.3-.2.5-.2h15.6c.2,0,.4,0,.5.2.1.1.2.3.2.5v.7c0,.2,0,.4-.2.5-.1.1-.3.2-.5.2Z"/>
      </g>
      <path id="path25589" class="st22" d="M90.1,18.1l-.4-.7h-.7l-1.1-1.8h-1.8l-.7-1.4-.7-.4-1.1.7h-1.8l-.7.4-.7-.7h-1.1l-1.4,2.1-.4-.4h-1.1l-1.1,1.4h-.7l-.4.7v.4h15.6v-.4Z"/>
    </g>
    <path class="st2" d=""/>
    <path class="st2" d=""/>
    <path id="path22-8-6-34-3-6-5-1" class="st27" d="M129.1,106.3" sodipodi:nodetypes="cc"/>
    <path class="st2" d=""/>
    <path class="st2" d=""/>
    <path id="path22-8-6-34-3-6-5-0-7" class="st27" d="M95.8,85.8" sodipodi:nodetypes="cc"/>
    <g id="g21">
      <g id="g4">
        <rect id="rect1-4" class="st22" x="13.3" y="49" width="1.6" height="1.2"/>
        <rect id="rect2" class="st22" x="26.4" y="49" width="1.6" height="1.2"/>
        <rect id="rect3-9" class="st22" x="13.3" y="53.9" width="1.6" height="1.2"/>
        <rect id="rect4" class="st22" x="26.4" y="53.9" width="1.6" height="1.2"/>
      </g>
      <rect id="rect5" class="st22" x="14.9" y="64.6" width="11.5" height="1.2"/>
      <rect id="rect6" class="st22" x="25.2" y="64.6" width="1.2" height="1.2"/>
      <path id="path6-8" class="st22" d="M29,52.4l-5.5-1.6v-2.8h3.5v.6h-.5c-.2,0-.3.1-.3.3v1.2c0,.2.1.3.3.3h1.6c.2,0,.3-.1.3-.3v-1.2c0-.2-.1-.3-.3-.3h-.5v-.6h1.3c.1,0,.3-.1.3-.3,0-.1,0-.3-.2-.3l-5.7-1.6s0,0,0,0c0,0,0,0,0,0,0,0,0,0,0,0,0,0,0,0,0,0,0,0,0,0,0,0,0,0,0,0,0,0h-4.9s0,0,0,0c0,0,0,0,0,0,0,0,0,0,0,0,0,0,0,0,0,0,0,0,0,0,0,0,0,0,0,0,0,0l-5.7,1.6c-.1,0-.2.2-.2.3,0,.1.1.3.3.3h1.3v.6h-.5c-.2,0-.3.1-.3.3v1.2c0,.2.1.3.3.3h1.6c.2,0,.3-.1.3-.3v-1.2c0-.2-.1-.3-.3-.3h-.5v-.6h2c.2,0,.3-.1.3-.3s-.1-.3-.3-.3h-1.8l3.3-.9v.9h-.2c-.2,0-.3.1-.3.3s.1.3.3.3h.2v2.8l-5.5,1.6c-.1,0-.2.2-.2.3,0,.1.1.3.3.3h1.3v.6h-.5c-.2,0-.3.1-.3.3v1.2c0,.2.1.3.3.3h1.6c.2,0,.3-.1.3-.3v-1.2c0-.2-.1-.3-.3-.3h-.5v-.6h3.5v2.9l-1.2,4.3s0,0,0,0h0s0,0,0,0h0s0,0,0,0l-1.2,4.1h-.6c-.2,0-.3.1-.3.3v.9h-.6c-.2,0-.3.1-.3.3s.1.3.3.3h13.3c.2,0,.3-.1.3-.3s-.1-.3-.3-.3h-.6v-.9c0-.2-.1-.3-.3-.3h-.6l-1.2-4.1s0,0,0,0h0s0,0,0,0l-1.2-4.3v-2.9h3.5v.6h-.5c-.2,0-.3.1-.3.3v1.2c0,.2.1.3.3.3h1.6c.2,0,.3-.1.3-.3v-1.2c0-.2-.1-.3-.3-.3h-.5v-.6h1.3c.1,0,.3-.1.3-.3,0-.1,0-.3-.2-.3ZM27.8,49.9h-1v-.6h1v.6ZM14.6,49.9h-1v-.6h1v.6ZM14.6,54.8h-1v-.6h1v.6ZM27.8,54.8h-1v-.6h1v.6ZM18.4,56.4l1.8,1.2-2.7,1.9.9-3.1ZM19.2,56.2h3l-1.5,1.1-1.5-1.1ZM17.9,59.9l2.7-1.9,2.7,1.9h-5.5ZM23.1,60.5l-2.4,1.2-2.4-1.2h4.9ZM17.2,60.7l2.8,1.4-3.8,1.9.9-3.3ZM20.7,62.4l3.7,1.8h-7.3l3.7-1.8ZM21.3,62.1l2.8-1.4.9,3.3-3.8-1.9ZM21.2,57.7l1.8-1.2.9,3.1-2.7-1.9ZM18.5,55.6v-2.4l3.6,2.4h-3.6ZM18.5,48.3l3.6,2.4h-3.6v-2.4ZM18.5,51.3h4.3v1h-4.3v-1ZM22.8,50.5l-3.6-2.4h3.6v2.4ZM23.4,47.4v-.9l3.3.9h-3.3ZM22.8,46.4v1h-4.3v-1h4.3ZM17.9,51.4v.9h-3.3l3.3-.9ZM26.1,65.5h-10.9v-.6h.5s0,0,0,0,0,0,0,0h0s0,0,0,0h9.8s0,0,0,0h0s0,0,0,0h.5v.6ZM22.8,55.4l-3.6-2.4h3.6v2.4ZM23.4,52.4v-.9l3.3.9h-3.3Z"/>
    </g>
    <g id="g21-2">
      <g id="g4-0">
        <rect id="rect1-4-1" class="st14" x="13.3" y="78.8" width="1.6" height="1.2"/>
        <rect id="rect2-1" class="st14" x="26.4" y="78.8" width="1.6" height="1.2"/>
        <rect id="rect3-9-4" class="st14" x="13.3" y="83.7" width="1.6" height="1.2"/>
        <rect id="rect4-4" class="st14" x="26.4" y="83.7" width="1.6" height="1.2"/>
      </g>
      <rect id="rect5-5" class="st14" x="14.9" y="94.4" width="11.5" height="1.2"/>
      <rect id="rect6-5" class="st14" x="25.2" y="94.4" width="1.2" height="1.2"/>
      <path id="path6-8-7" class="st14" d="M29,82.2l-5.5-1.6v-2.8h3.5v.6h-.5c-.2,0-.3.1-.3.3v1.2c0,.2.1.3.3.3h1.6c.2,0,.3-.1.3-.3v-1.2c0-.2-.1-.3-.3-.3h-.5v-.6h1.3c.1,0,.3-.1.3-.3,0-.1,0-.3-.2-.3l-5.7-1.6s0,0,0,0c0,0,0,0,0,0,0,0,0,0,0,0,0,0,0,0,0,0,0,0,0,0,0,0,0,0,0,0,0,0h-4.9s0,0,0,0c0,0,0,0,0,0,0,0,0,0,0,0,0,0,0,0,0,0,0,0,0,0,0,0,0,0,0,0,0,0l-5.7,1.6c-.1,0-.2.2-.2.3,0,.1.1.3.3.3h1.3v.6h-.5c-.2,0-.3.1-.3.3v1.2c0,.2.1.3.3.3h1.6c.2,0,.3-.1.3-.3v-1.2c0-.2-.1-.3-.3-.3h-.5v-.6h2c.2,0,.3-.1.3-.3s-.1-.3-.3-.3h-1.8l3.3-.9v.9h-.2c-.2,0-.3.1-.3.3s.1.3.3.3h.2v2.8l-5.5,1.6c-.1,0-.2.2-.2.3,0,.1.1.3.3.3h1.3v.6h-.5c-.2,0-.3.1-.3.3v1.2c0,.2.1.3.3.3h1.6c.2,0,.3-.1.3-.3v-1.2c0-.2-.1-.3-.3-.3h-.5v-.6h3.5v2.9l-1.2,4.3s0,0,0,0h0s0,0,0,0h0s0,0,0,0l-1.2,4.1h-.6c-.2,0-.3.1-.3.3v.9h-.6c-.2,0-.3.1-.3.3s.1.3.3.3h13.3c.2,0,.3-.1.3-.3s-.1-.3-.3-.3h-.6v-.9c0-.2-.1-.3-.3-.3h-.6l-1.2-4.1s0,0,0,0h0s0,0,0,0l-1.2-4.3v-2.9h3.5v.6h-.5c-.2,0-.3.1-.3.3v1.2c0,.2.1.3.3.3h1.6c.2,0,.3-.1.3-.3v-1.2c0-.2-.1-.3-.3-.3h-.5v-.6h1.3c.1,0,.3-.1.3-.3,0-.1,0-.3-.2-.3ZM27.8,79.8h-1v-.6h1v.6ZM14.6,79.8h-1v-.6h1v.6ZM14.6,84.7h-1v-.6h1v.6ZM27.8,84.7h-1v-.6h1v.6ZM18.4,86.3l1.8,1.2-2.7,1.9.9-3.1ZM19.2,86.1h3l-1.5,1.1-1.5-1.1ZM17.9,89.8l2.7-1.9,2.7,1.9h-5.5ZM23.1,90.4l-2.4,1.2-2.4-1.2h4.9ZM17.2,90.5l2.8,1.4-3.8,1.9.9-3.3ZM20.7,92.3l3.7,1.8h-7.3l3.7-1.8ZM21.3,91.9l2.8-1.4.9,3.3-3.8-1.9ZM21.2,87.5l1.8-1.2.9,3.1-2.7-1.9ZM18.5,85.5v-2.4l3.6,2.4h-3.6ZM18.5,78.1l3.6,2.4h-3.6v-2.4ZM18.5,81.2h4.3v1h-4.3v-1ZM22.8,80.3l-3.6-2.4h3.6v2.4ZM23.4,77.3v-.9l3.3.9h-3.3ZM22.8,76.2v1h-4.3v-1h4.3ZM17.9,81.3v.9h-3.3l3.3-.9ZM26.1,95.3h-10.9v-.6h.5s0,0,0,0,0,0,0,0h0s0,0,0,0h9.8s0,0,0,0h0s0,0,0,0h.5v.6ZM22.8,85.2l-3.6-2.4h3.6v2.4ZM23.4,82.2v-.9l3.3.9h-3.3Z"/>
    </g>
    <g id="g23">
      <g id="g3">
        <path id="path1-2" class="st14" d="M6,92.1c0,0-.1,0-.1-.1,0-.3-.1-.5-.1-.8,0-1.2.7-2.2,1.7-2.7,0,0,.2,0,.2,0,0,0,0,.2,0,.2-1,.4-1.6,1.4-1.6,2.5,0,.2,0,.5,0,.7,0,0,0,.2,0,.2,0,0,0,0,0,0Z"/>
        <path id="path2" class="st14" d="M11.6,91.6h0c0,0-.1,0-.1-.2h0c0,0,0-.2,0-.2,0-1.2-.8-2.3-2-2.6,0,0-.1,0-.1-.2,0,0,0-.1.2-.1,1.3.3,2.2,1.5,2.2,2.9,0,0,0,.2,0,.3,0,0,0,.1-.1.1Z"/>
        <path id="path3-0" class="st14" d="M8.7,94.2c-.6,0-1.2-.2-1.7-.6,0,0,0,0,0,0,0,0,0-.1,0-.2,0,0,0,0,0,0,0,0,.1,0,.2,0,1.1.8,2.6.6,3.5-.3,0,0,.1,0,.2,0s0,.1,0,.2h0c-.6.6-1.3.9-2.1.9Z"/>
      </g>
      <path id="path4-0" class="st14" d="M9.3,95.4h-1.1l.3-3.4h.6l.3,3.4Z"/>
      <circle id="circle4" class="st14" cx="8.7" cy="91.2" r=".9"/>
      <circle id="circle5" class="st14" cx="8.7" cy="91.2" r=".3"/>
      <path id="path5-5" class="st14" d="M8.7,91.6c-.2,0-.4-.2-.4-.4s.2-.4.4-.4.4.2.4.4-.2.4-.4.4ZM8.7,91.1c0,0-.1,0-.1.1s0,.1.1.1.1,0,.1-.1,0-.1-.1-.1Z"/>
      <path id="path6-5" class="st14" d="M8.9,90.5v-3.3c-.2,0-.5.2-.5.4l-.4,2.1c0,.1,0,.2.1.3l.6.5h.3Z"/>
      <path id="path7-8" class="st14" d="M8,91.5l-2.8,1.6c.1.2.4.3.6.2l2.1-.7c.1,0,.2-.1.2-.2v-.7c.1,0,0-.2,0-.2Z"/>
      <path id="path8-4" class="st14" d="M9.3,91.7l2.8,1.6c.1-.2,0-.5-.1-.7l-1.6-1.4c0,0-.2,0-.3,0l-.7.3v.2Z"/>
    </g>
    <g id="g5-0">
      <path id="path4-02" class="st16" d="M7.9,83.4h1.6v-1.1h-1.6v1.1ZM7.7,84.8h1.9v-1.1h-1.8v1.1ZM5.5,85.1l-.3,1.2h2.1v-1.2c.1,0-1.8,0-1.8,0h0ZM5.7,83.7l-.2,1.1h1.9v-1.1c0,0-1.7,0-1.7,0ZM6,82.3l-.2,1.1h1.7v-1.1c0,0-1.5,0-1.5,0ZM7.8,80.8h-1.4l-.3,1.2h1.6v-1.2ZM9.3,80.8h-1.2v1.2c-.1,0,1.3,0,1.3,0v-1.2ZM11.3,82l-.3-1.2h-1.4v.3s.1.9.1.9h1.6ZM11.6,83.4l-.2-1.1h-1.6v1.1h1.8ZM11.9,84.8l-.2-1.1h-1.8v1.1h2ZM10,86.3h2.1l-.3-1.2h-2v1.2ZM8.7,86.3h1.1v-1.2h-2v.8c0,0-.1.4-.1.4h1.1Z"/>
    </g>
    <g id="g7-8">
      <path id="path1-1" class="st14" d="M47.3,126.1c-.1,0-.3,0-.4,0,0,0-.2,0-.1.1.1.5.5.8,1.1.8h7.1c.5,0,.9-.3,1.1-.8,0,0,0-.2-.1-.1-.3,0-1.2,0-8.6,0Z"/>
      <path id="path2-78" class="st14" d="M46,122.1h10.9c0,0,.1,0,.1-.1v-7.2c0,0,0-.1-.1-.1h-10.9c0,0-.1,0-.1.1v7.2c0,0,0,.1.1.1ZM47.4,116.2c0-.2.1-.3.3-.3h1.4c.9,0,1.8.5,2.2,1.2,0,0,.2,0,.2,0,.5-.7,1.3-1.2,2.2-1.2h1.4c.2,0,.3.1.3.3v.8c0,1.5-1.2,2.6-2.6,2.6h-1c0,0-.1,0-.1.1v1.1c0,.2-.1.3-.3.3-.2,0-.3-.1-.3-.3v-1.1c0,0,0-.1-.1-.1h-1c-1.5,0-2.6-1.2-2.6-2.6v-.8Z"/>
      <path id="path3-4" class="st14" d="M50.1,119h.4s0,0,0,0l-1.1-.9c-.1-.1-.2-.3,0-.4.1-.1.3-.2.4,0l1.3,1.1s0,0,0,0c0-1.1-.9-2-2-2h-1c0,0-.1,0-.1.1v.3c0,1.1.9,2,2,2Z"/>
      <path id="path4-89" class="st14" d="M53.6,117.5c0,.1,0,.3,0,.4l-1.1.9s0,0,0,0h.4c1.1,0,2-.9,2-2v-.3c0,0,0-.1-.1-.1h-1c-1.1,0-2,.9-2,2s0,0,0,0l1.3-1.1c.1-.1.3,0,.4,0Z"/>
      <path id="path5-10" class="st14" d="M55.6,111.2h0v-1.1c0,0,0-.1-.1-.1-.1,0-.6,0-1.9,0,0,0-.1,0-.1.1v1.1h-1.6v-.6h.6c.2,0,.3-.1.3-.3,0-.2-.1-.3-.3-.3h-1.8c-.2,0-.3.1-.3.3,0,.2.1.3.3.3h.6v.6h-1.6v-1.1c0,0,0-.1-.1-.1-1.4,0-1.8,0-1.9,0,0,0-.1,0-.1.1v1.1h0c-.8,0-1.5.7-1.5,1.5v1.2c0,0,0,.1.1.1h10.9c0,0,.1,0,.1-.1v-1.2c0-.8-.7-1.5-1.5-1.5Z"/>
      <path id="path6-11" class="st14" d="M45.9,124c0,.8.7,1.5,1.5,1.5h8.2c.8,0,1.5-.7,1.5-1.5v-1.2c0,0,0-.1-.1-.1h-10.9c0,0-.1,0-.1.1v1.2Z"/>
      <path id="path7-3" class="st14" d="M47.6,109.3h7.8c.6,0,1.1-.5,1.1-1.1s-.5-1.1-1.1-1.1h-7.8c-.6,0-1.1.5-1.1,1.1s.5,1.1,1.1,1.1Z"/>
    </g>
    <g id="Fertilizer">
      <path id="path44375" class="st14" d="M24.8,108.8c-.3-.6-1-1-1.7-1s-.4,0-.5,0c-.5-.4-1.2-.7-1.9-.7s-1.4.3-1.9.7c-.2,0-.4,0-.5,0-.7,0-1.4.4-1.7,1-.9.3-1.6,1.1-1.7,2.1h11.7c-.1-1-.8-1.8-1.7-2.1ZM18.2,110c-.2,0-.3-.1-.3-.3s.1-.3.3-.3.3.1.3.3-.1.3-.3.3ZM20.7,109c-.2,0-.3-.1-.3-.3s.1-.3.3-.3.3.1.3.3-.1.3-.3.3ZM23.2,110c-.2,0-.3-.1-.3-.3s.1-.3.3-.3.3.1.3.3-.1.3-.3.3Z"/>
      <rect id="rect44377" class="st14" x="12.6" y="125.5" width="16.1" height="1.6" rx=".6" ry=".6"/>
      <path id="path44379" class="st14" d="M21.4,119.3h.2c.7,0,1.2-.6,1.2-1.2v-.6h-.6c-.7,0-1.2.6-1.2,1.2v.2l.4-.4c.1-.1.3-.1.4,0s.1.3,0,.4l-.4.4Z"/>
      <path id="path44381" class="st14" d="M21.3,121.6c-.4-.4-1-.4-1.3,0-.3.3-.7.5-1.1.5h-1.1c.7.8,1.8,1.2,2.9,1.2s2.2-.5,2.9-1.2h-1.1c-.4,0-.8-.2-1.1-.5Z"/>
      <path id="path44383" class="st14" d="M20,118.7l.4.4v-.2c0-.7-.6-1.2-1.2-1.2h-.6v.6c0,.7.6,1.2,1.2,1.2h.2l-.4-.4c-.1-.1-.1-.3,0-.4s.3-.1.4,0Z"/>
      <path id="path44385" class="st14" d="M27.9,124.8c.7-3.2.7-6.5-.1-9.7l-.4-1.5c0,0-.1,0-.2,0h-13c0,0-.1,0-.2,0l-.4,1.5c-.8,3.2-.9,6.5-.1,9.7h14.4ZM20.7,114.6c2.6,0,4.7,2.1,4.7,4.7s-2.1,4.7-4.7,4.7-4.7-2.1-4.7-4.7,2.1-4.7,4.7-4.7Z"/>
      <path id="path44387" class="st14" d="M19.6,121.2c.2-.2.5-.4.8-.4v-.5h-.6c-1,0-1.9-.8-1.9-1.9v-.9c0-.2.1-.3.3-.3h.9c.6,0,1.1.3,1.4.7.3-.6.9-1,1.7-1h.9c.2,0,.3.1.3.3v.9c0,1-.8,1.9-1.9,1.9h-.6v.9c.3,0,.6.2.8.4.2.2.4.3.7.3h1.6c.4-.6.6-1.4.6-2.2,0-2.2-1.8-4-4-4s-4,1.8-4,4,.2,1.5.6,2.2h1.6c.2,0,.5,0,.7-.3Z"/>
      <rect id="rect44389" class="st14" x="13.5" y="111.5" width="14.3" height="1.6" rx=".6" ry=".6"/>
    </g>
    <g id="g85612" class="st29">
      <path id="path85573" class="st14" d="M77.8,109.3c0-.2-.1-.3-.3-.3h-1.9c-.2,0-.3.1-.3.3v1h2.6v-1Z"/>
      <path id="path85575" class="st14" d="M80.3,126.4c0,.2-.1.5-.3.6h4.8v-.6h-4.5Z"/>
      <ellipse id="ellipse85577" class="st14" cx="88.1" cy="117.1" rx="3.2" ry="1"/>
      <path id="path85579" class="st14" d="M79.3,112.8l-1.4-.9c0,0-.1-.2-.1-.3v-.6h-2.6v.6c0,.1,0,.2-.1.3l-1.4.9c-.3.2-.4.5-.4.8v1.6c0,0,0,.2,0,.2.4.4.4,1,0,1.4h0c0,0,0,.1,0,.2h0c0,.2,0,.3,0,.3.4.4.4,1,0,1.4,0,0,0,0,0,0,0,0,0,.1,0,.2h0c0,.2,0,.3,0,.3.4.4.4,1,0,1.4,0,0,0,0,0,0,0,0,0,.1,0,.2h0c0,.2,0,.3,0,.3.4.4.4,1,0,1.4,0,0,0,0,0,0,0,0,0,.1,0,.2h0c0,.2,0,.3,0,.3.4.4.4,1,0,1.4,0,0,0,0,0,0,0,0,0,.1,0,.2v1.3c0,.5.4,1,1,1h4.5c.5,0,1-.4,1-1v-1.3c0,0,0-.2,0-.2-.4-.4-.4-1,0-1.4,0,0,0,0,0,0,0,0,0-.1,0-.2h0c0-.2,0-.3,0-.3-.4-.4-.4-1,0-1.4,0,0,0,0,0,0,0,0,0-.1,0-.2h0c0-.2,0-.3,0-.3-.4-.4-.4-1,0-1.4,0,0,0,0,0,0,0,0,0-.1,0-.2h0c0-.2,0-.3,0-.3-.4-.4-.4-1,0-1.4h0c0,0,0-.1,0-.2h0c0-.2,0-.3,0-.3-.4-.4-.4-1,0-1.4h0c0,0,0-.1,0-.2v-1.6c0-.3-.2-.6-.4-.8ZM75.4,112.4l.4.5-.5.3-.4-.5.5-.3ZM73.9,115.1v-1.4c0-.2.1-.4.3-.5h.2c0-.1.4.4.4.4h-.2v1.5h-.6ZM78.8,124.1h-4.5v-.6h4.5v.6ZM78.8,122.2h-4.5v-.6h4.5v.6ZM78.8,120.3h-4.5v-.6h4.5v.6ZM78.8,118.3h-4.5v-.6h4.5v.6ZM78.8,116.4h-4.5v-.6h4.5v.6Z"/>
      <path id="path85581" class="st14" d="M80.1,123.6c-.1.1-.1.3,0,.5,0,0,0,0,0,0,.2.2.3.4.3.7v1h4.4l-.5-8.6h0s0,0,0,0h0s0,0,0,0c0-1.1,1.9-1.6,3.9-1.6.4,0,.9,0,1.3,0v-6.5h-1.9v4.8c0,.2-.1.3-.3.3h-5.1c-.2,0-.3-.1-.3-.3v-4.8h-1.9v3.3c.4.3.6.8.6,1.3v1.6c0,.3-.1.5-.3.7-.1.1-.1.3,0,.5h0c.2.2.3.4.3.7h0c0,.4-.1.6-.3.8-.1.1-.1.3,0,.5,0,0,0,0,0,0,.2.2.3.4.3.7h0c0,.4-.1.6-.3.8-.1.1-.1.3,0,.5,0,0,0,0,0,0,.2.2.3.4.3.7h0c0,.4-.1.6-.3.8-.1.1-.1.3,0,.5,0,0,0,0,0,0,.2.2.3.4.3.7h0c0,.4-.1.6-.3.8Z"/>
      <path id="path85583" class="st14" d="M85.4,125.1h5.4v-.6s-5.5,0-5.5,0v.6Z"/>
      <path id="path85585" class="st14" d="M84.9,118v1.9h6.2v-1.9c-.6.4-1.8.6-3,.6s-2.4-.2-3.2-.6Z"/>
      <path id="path85587" class="st14" d="M85.5,127h5.2v-1.3c0,0-5.3,0-5.3,0v1.3Z"/>
      <path id="path85589" class="st14" d="M85.1,121.2h5.9v-.6s-5.9,0-5.9,0v.6Z"/>
      <path id="path85591" class="st14" d="M85.2,122.5h5.7v-.6s-5.8,0-5.8,0v.6Z"/>
      <path id="path85593" class="st14" d="M85.3,123.8h5.6v-.6s-5.6,0-5.6,0v.6Z"/>
    </g>
    <text class="st20" transform="translate(169 55.7) rotate(-90)"><tspan x="0" y="0">kg CO2-eq</tspan></text>
    <text/>
    <text class="st20" transform="translate(169 104.9) rotate(-90)"><tspan x="0" y="0">USD</tspan></text>
    <text/>
    <rect id="rect86484" class="st0" x="171.1" y="22.6" width="43.9" height="39.8"/>
    <rect id="rect86484-2" class="st0" x="171.1" y="79.3" width="43.9" height="39.8"/>
    <rect id="rect86754" class="st22" x="178.3" y="25.4" width="8.5" height="17"/>
    <rect id="rect86754-1" class="st28" x="199.3" y="42.7" width="8.5" height="8.5"/>
    <rect id="rect86754-4" class="st22" x="178.3" y="96.3" width="8.5" height="22.7"/>
    <rect id="rect86754-1-0" class="st28" x="199.3" y="89.5" width="8.5" height="29.5"/>
    <circle id="path87697" class="st10" cx="182.5" cy="25.4" r=".9"/>
    <circle id="path87697-1" class="st10" cx="182.5" cy="96.3" r=".9"/>
    <circle id="path87697-8" class="st10" cx="203.5" cy="51.1" r=".9"/>
    <circle id="path87697-8-5" class="st10" cx="203.5" cy="89.5" r=".9"/>
    <path id="path3474" class="st11" d="M171.1,42.5h43.9"/>
    <text class="st19" transform="translate(224.8 84.5)"><tspan x="0" y="0">e.g., PVC</tspan></text>
    <text class="st19" transform="translate(221 51.3)"><tspan x="0" y="0">Sustainable</tspan></text>
    <text class="st19" transform="translate(224.8 57.3)"><tspan x="0" y="0">products</tspan></text>
    <path class="st2" d=""/>
    <g id="g79489">
      <g id="g79168">
        <g id="g79113">
          <g id="g79111">
            <path id="path79109" class="st28" d="M243,62.8l-2.6-2.6c-.3-.3-.7-.3-.9,0l-1.3,1.3-.4-.4c-.3-.3-.7-.3-.9,0l-.8.8c-.3.3-.3.7,0,.9l.4.4-4,4v-2.3h.6c.4,0,.7-.3.7-.7v-1.2c0-.4-.3-.7-.7-.7h-.6v-1.8c0-.4-.3-.7-.7-.7h-3.7c-.4,0-.7.3-.7.7v1.8h-.6c-.4,0-.7.3-.7.7v1.2c0,.4.3.7.7.7h.6v8.7h-.6c-.4,0-.7.3-.7.7v1.2c0,.4.3.7.7.7h.6v1.8c0,.4.3.7.7.7h3.7c.4,0,.7-.3.7-.7v-1.8h.6c.4,0,.7-.3.7-.7v-1.2c0-.4-.3-.7-.7-.7h-.1l7.1-6.9.4.4c.1.1.3.2.5.2s.3,0,.5-.2l.8-.8c.3-.3.3-.7,0-.9l-.4-.4,1.3-1.3c.3-.3.3-.7,0-.9ZM226.9,64.4s0,0,0,0v-1.2s0,0,0,0h6.2s0,0,0,0v1.2s0,0,0,0h-6.2ZM233,74.4s0,0,0,0v1.2s0,0,0,0h-6.2s0,0,0,0v-1.2s0,0,0,0h6.2ZM241.7,65.9l-.8.8s0,0,0,0l-.6-.6-3.1-3.1-.6-.6s0,0,0,0l.8-.8s0,0,0,0,0,0,0,0l.6.6,3.1,3.1.6.6s0,0,0,0Z"/>
          </g>
        </g>
      </g>
      <g id="g79256">
        <path id="path79230" class="st28" d="M238.6,71.1l1-.2c0,0,.1,0,.2-.1l.7-1.2c.3-.6,1.1-.7,1.6-.4.2,0,.3.2.4.4l1.7,2.9c0,.1.2.2.3,0,0,0,0,0,.1-.1l.8-1.9c0-.1,0-.3-.1-.3,0,0-.1,0-.2,0l-.5.3-.9-1.6c-.9-1.6-3.4-1.6-4.3,0l-1,1.7c0,.1,0,.3,0,.3,0,0,.1,0,.2,0Z"/>
        <path id="path79232" class="st28" d="M240.7,78.2c0,0,.2,0,.2-.1,0,0,0-.2,0-.3l-.6-.8c0,0-.1,0-.2,0h-1.8c-.6,0-1.2-.5-1.2-1.2,0-.2,0-.4.2-.6l1.9-3.2c0-.1,0-.3,0-.3,0,0-.1,0-.2,0l-2,.3c-.1,0-.2.2-.2.3,0,0,0,.1.1.2l.5.3-1.1,1.9c-1,1.6.3,3.8,2.1,3.7h2.4Z"/>
        <path id="path79234" class="st28" d="M246.8,74.5l-1.2-2c0-.1-.2-.2-.3,0,0,0,0,0-.1.1l-.4,1c0,0,0,.2,0,.2l.9,1.4c.3.6.1,1.3-.4,1.6-.2.1-.4.2-.6.2h-3.3c0,0-.2,0-.2.1,0,0,0,.2,0,.3l1.1,1.3c0,0,.1,0,.2,0,.1,0,.3-.1.3-.2v-.3h2c1.4,0,2.5-1.1,2.5-2.5,0-.4-.1-.9-.3-1.2Z"/>
        <path id="path79236" class="st28" d="M241.7,71.7h-.3c-.5,0-1,.4-1.1.9,0,.1,0,.3.2.3.3,0,.3-.3.5-.5.2-.2.5-.2.7-.2.3,0,.6.3.6.6,0,.1,0,.3-.2.4-.1.1-.3.2-.4.2-.1,0-.3.1-.3.3,0,.1.1.3.3.3.3,0,.6.3.6.6,0,.3-.3.6-.6.6h-.3c-.3,0-.5-.2-.6-.5,0-.1-.2-.2-.3-.2s-.2.2-.2.3c0,0,0,0,0,0,.1.5.5.9,1.1.9h.3c.6,0,1.1-.5,1.1-1.1,0-.3-.1-.6-.4-.8.8-.6.3-1.9-.7-1.9Z"/>
      </g>
    </g>
    <line class="st7" x1="94.1" y1="22.4" x2="129.1" y2="22.4"/>
    <line class="st8" x1="129.1" y1="22.4" x2="129.1" y2="35.4"/>
    <path class="st24" d="M129.1,36.5c-.6,0-1.1-.5-1.1-1.1s.5-1.1,1.1-1.1,1.1.5,1.1,1.1-.5,1.1-1.1,1.1Z"/>
    <line class="st8" x1="32.4" y1="55.9" x2="95.8" y2="55.9"/>
    <path class="st24" d="M96.9,55.9c0,.6-.5,1.1-1.1,1.1s-1.1-.5-1.1-1.1.5-1.1,1.1-1.1,1.1.5,1.1,1.1Z"/>
    <line class="st6" x1="32.4" y1="85.8" x2="95.8" y2="85.8"/>
    <path class="st16" d="M96.9,85.8c0,.6-.5,1.1-1.1,1.1s-1.1-.5-1.1-1.1.5-1.1,1.1-1.1,1.1.5,1.1,1.1Z"/>
    <line class="st3" x1="94.1" y1="119.5" x2="129.1" y2="119.5"/>
    <line class="st9" x1="129.1" y1="119.5" x2="129.1" y2="106.3"/>
    <path class="st25" d="M129.1,105.2c.6,0,1.1.5,1.1,1.1s-.5,1.1-1.1,1.1-1.1-.5-1.1-1.1.5-1.1,1.1-1.1Z"/>
    <line class="st1" x1="163.5" y1="70.9" x2="222.6" y2="70.9"/>
    <path class="st26" d="M223.7,70.9c0,.6-.5,1.1-1.1,1.1s-1.1-.5-1.1-1.1.5-1.1,1.1-1.1,1.1.5,1.1,1.1Z"/>
  </g>
</svg>